<?xml version="1.0" encoding="utf-8" standalone="no"?>
<!DOCTYPE svg PUBLIC "-//W3C//DTD SVG 1.1//EN"
  "http://www.w3.org/Graphics/SVG/1.1/DTD/svg11.dtd">
<svg xmlns:xlink="http://www.w3.org/1999/xlink" width="1091.09pt" height="391.445pt" viewBox="0 0 1091.09 391.445" xmlns="http://www.w3.org/2000/svg" version="1.1">
 <metadata>
  <rdf:RDF xmlns:dc="http://purl.org/dc/elements/1.1/" xmlns:cc="http://creativecommons.org/ns#" xmlns:rdf="http://www.w3.org/1999/02/22-rdf-syntax-ns#">
   <cc:Work>
    <dc:type rdf:resource="http://purl.org/dc/dcmitype/StillImage"/>
    <dc:date>2022-12-15T11:04:46.705844</dc:date>
    <dc:format>image/svg+xml</dc:format>
    <dc:creator>
     <cc:Agent>
      <dc:title>Matplotlib v3.6.2, https://matplotlib.org/</dc:title>
     </cc:Agent>
    </dc:creator>
   </cc:Work>
  </rdf:RDF>
 </metadata>
 <defs>
  <style type="text/css">*{stroke-linejoin: round; stroke-linecap: butt}</style>
 </defs>
 <g id="figure_1">
  <g id="patch_1">
   <path d="M 0 391.445 
L 1091.09 391.445 
L 1091.09 0 
L 0 0 
z
" style="fill: #ffffff"/>
  </g>
  <g id="axes_1">
   <g id="patch_2">
    <path d="M 79.49 339.84 
L 576.717723 339.84 
L 576.717723 7.2 
L 79.49 7.2 
z
" style="fill: #ffffff"/>
   </g>
   <g id="PolyCollection_1">
    <path d="M 102.09126 339.84 
L 102.09126 339.84 
L 103.138624 339.84 
L 104.185229 339.84 
L 105.231077 339.84 
L 106.276168 339.84 
L 107.320506 339.84 
L 108.364091 339.84 
L 109.406925 339.84 
L 110.44901 339.84 
L 111.490347 339.84 
L 112.530938 339.84 
L 113.570784 339.84 
L 114.609888 339.84 
L 115.64825 339.84 
L 116.685873 339.84 
L 117.722757 339.84 
L 118.758905 339.84 
L 119.794318 339.84 
L 120.828998 339.84 
L 121.862946 339.84 
L 122.896163 339.84 
L 123.928651 339.84 
L 124.960413 339.84 
L 125.991448 291.747811 
L 127.02176 246.927176 
L 128.051349 210.963385 
L 129.080216 177.678924 
L 130.108365 146.773057 
L 131.135795 121.749357 
L 132.162508 102.075855 
L 133.188506 89.469565 
L 134.213791 85.763727 
L 135.238363 86.068223 
L 136.262225 90.556875 
L 137.285378 93.050266 
L 138.307823 97.792338 
L 139.329562 101.874397 
L 140.350596 103.307488 
L 141.370926 106.255095 
L 142.390555 110.781044 
L 143.409484 112.518326 
L 144.427713 114.282115 
L 145.445245 116.497598 
L 146.462081 117.415444 
L 147.478222 119.235338 
L 148.49367 119.540956 
L 149.508426 120.706419 
L 150.522491 121.591614 
L 151.535868 122.241832 
L 152.548557 122.695135 
L 153.56056 122.983361 
L 154.571878 123.133082 
L 155.582512 123.166466 
L 156.592464 123.102017 
L 157.601736 123.441111 
L 158.610329 123.217275 
L 159.618243 122.934719 
L 160.625481 123.069496 
L 161.632044 123.366889 
L 162.637933 123.388114 
L 163.643149 122.918016 
L 164.647694 123.501656 
L 165.65157 122.967202 
L 166.654777 123.45872 
L 167.657316 122.877505 
L 168.65919 123.29579 
L 169.6604 123.095489 
L 170.660946 123.040517 
L 171.660831 122.804667 
L 172.660055 123.112938 
L 173.658619 122.845172 
L 174.656526 122.720379 
L 175.653776 122.969 
L 176.650371 122.665849 
L 177.646312 122.882956 
L 178.6416 123.083744 
L 179.636237 123.269693 
L 180.630223 123.077412 
L 181.62356 122.73281 
L 182.61625 122.889679 
L 183.608294 123.036117 
L 184.599692 123.173048 
L 185.590446 123.301318 
L 186.580558 123.421697 
L 187.570029 123.534891 
L 188.558859 123.641544 
L 189.54705 123.261106 
L 190.534604 123.359309 
L 191.521521 123.452479 
L 192.507804 123.541078 
L 193.493452 123.625529 
L 194.478467 124.174037 
L 195.462851 124.564048 
L 196.446605 124.633167 
L 197.429729 124.69967 
L 198.412226 124.763826 
L 199.394096 124.825883 
L 200.37534 124.886064 
L 201.355961 124.944574 
L 202.335958 125.299201 
L 203.315333 125.800177 
L 204.294087 125.850716 
L 205.272222 125.90036 
L 206.249738 126.238355 
L 207.226638 126.284169 
L 208.202921 126.767733 
L 209.178589 126.811449 
L 210.153644 127.136026 
L 211.128086 127.176938 
L 212.101916 127.649022 
L 213.075136 127.688836 
L 214.047748 128.002341 
L 215.019751 128.466021 
L 215.991147 128.503169 
L 216.961938 128.809116 
L 217.932124 129.265694 
L 218.901707 129.3008 
L 219.870687 129.599951 
L 220.839066 130.050547 
L 221.806845 130.083958 
L 222.774025 130.790379 
L 223.740607 130.822383 
L 224.706593 131.52103 
L 225.671983 131.551827 
L 226.636778 131.582292 
L 227.60098 132.272877 
L 228.564589 132.302141 
L 229.527607 132.986038 
L 230.490035 133.014137 
L 231.451874 133.691729 
L 232.413125 133.718634 
L 233.373789 134.390287 
L 234.333867 134.415892 
L 235.293361 134.838526 
L 236.25227 135.500065 
L 237.210597 135.525635 
L 238.168343 136.182036 
L 239.125508 136.205965 
L 240.082093 136.857562 
L 241.0381 136.879414 
L 241.993529 137.52655 
L 242.948383 138.168322 
L 243.90266 138.188736 
L 244.856364 138.826456 
L 245.809494 139.226677 
L 246.762053 139.477672 
L 247.71404 139.875977 
L 248.665457 140.121182 
L 249.616304 140.517876 
L 250.566584 141.139536 
L 251.516297 141.756086 
L 252.465443 141.770089 
L 253.414025 142.383919 
L 254.362042 142.767896 
L 255.309497 143.002267 
L 256.256389 143.385325 
L 257.20272 143.988155 
L 258.148492 144.585969 
L 259.093704 144.592142 
L 260.038358 145.188487 
L 260.982455 145.779804 
L 261.925996 146.147226 
L 262.868982 146.366364 
L 263.811414 146.952113 
L 264.753292 147.316029 
L 265.694619 147.893079 
L 266.635394 148.248918 
L 267.575619 148.458678 
L 268.515295 149.031471 
L 269.454422 149.384666 
L 270.393002 149.948732 
L 271.331036 150.50776 
L 272.268524 151.061779 
L 273.205468 151.045038 
L 274.141868 151.602077 
L 275.077725 152.153874 
L 276.013041 152.490201 
L 276.947816 153.03312 
L 277.882052 153.570879 
L 278.815748 153.894194 
L 279.748907 154.423293 
L 280.681528 154.590273 
L 281.613614 155.127635 
L 282.545164 155.452046 
L 283.476181 155.979446 
L 284.406663 156.501092 
L 285.336614 157.01702 
L 286.266033 157.321941 
L 287.194921 157.828261 
L 288.12328 158.328959 
L 289.05111 158.82407 
L 289.978412 159.109606 
L 290.905187 159.595464 
L 291.831437 160.075822 
L 292.757161 160.550715 
L 293.68236 161.020173 
L 294.607037 161.282741 
L 295.531191 161.743358 
L 296.454823 162.198619 
L 297.377934 162.648554 
L 298.300526 163.093194 
L 299.222599 163.332869 
L 300.144153 163.76909 
L 301.065191 164.200084 
L 301.985712 164.625878 
L 302.905717 165.046501 
L 303.825208 165.262854 
L 304.744186 165.67552 
L 305.66265 166.083071 
L 306.580602 166.485533 
L 307.498043 166.984455 
L 308.414974 167.376792 
L 309.331395 167.764608 
L 310.247308 167.952389 
L 311.162713 168.333799 
L 312.077611 168.710706 
L 312.992003 169.083126 
L 313.905889 169.451075 
L 314.819271 169.814569 
L 315.73215 170.277426 
L 316.644526 170.437318 
L 317.5564 170.790752 
L 318.467772 171.139939 
L 319.378645 171.48489 
L 320.289018 171.825619 
L 321.198892 172.162138 
L 322.108269 172.600492 
L 323.017149 172.928655 
L 323.925532 173.252766 
L 324.83342 173.37862 
L 325.740814 173.69879 
L 326.647713 174.123212 
L 327.55412 174.435211 
L 328.460035 174.743223 
L 329.365458 175.047259 
L 330.270391 175.347328 
L 331.174834 175.754127 
L 332.078788 176.046355 
L 332.982254 176.334716 
L 333.885232 176.619218 
L 334.787724 177.012932 
L 335.689731 177.289816 
L 336.591252 177.562928 
L 337.492289 177.832275 
L 338.392842 178.213357 
L 339.292913 178.287639 
L 340.192502 178.555054 
L 341.091609 178.818392 
L 341.990237 179.19567 
L 342.888385 179.451035 
L 343.786054 179.702409 
L 344.683244 180.070285 
L 345.579958 180.313861 
L 346.476195 180.553526 
L 347.371956 180.78929 
L 348.267243 181.144341 
L 349.162055 181.372537 
L 350.056393 181.596906 
L 350.950259 181.943252 
L 351.843653 182.160209 
L 352.736575 182.373406 
L 353.629027 182.711341 
L 354.52101 182.917278 
L 355.412523 183.250555 
L 356.303568 183.449328 
L 357.194145 183.644449 
L 358.084255 183.969803 
L 358.9739 184.157901 
L 359.863079 184.3424 
L 360.751793 184.72511 
L 361.640044 184.901509 
L 362.527831 185.214169 
L 363.415156 185.384318 
L 364.302019 185.551229 
L 365.188422 185.857525 
L 366.074363 186.018293 
L 366.959846 186.321337 
L 367.844869 186.476034 
L 368.729434 186.627561 
L 369.613542 186.924658 
L 370.497193 187.070215 
L 371.380389 187.364367 
L 372.263128 187.504027 
L 373.145414 187.795367 
L 374.027245 187.929197 
L 374.908623 188.283888 
L 375.789549 188.411359 
L 376.670022 188.696924 
L 377.550045 188.818808 
L 378.429617 188.937713 
L 379.30874 189.218427 
L 380.187413 189.331836 
L 381.065638 189.610413 
L 381.943415 189.718391 
L 382.820746 190.062046 
L 383.69763 190.164175 
L 384.574068 190.438422 
L 385.450062 190.713332 
L 386.325611 190.807871 
L 387.200717 191.081188 
L 388.075379 191.170586 
L 388.9496 191.442442 
L 389.823379 191.594311 
L 390.696717 191.864439 
L 391.569614 191.943362 
L 392.442073 192.212332 
L 393.314092 192.286337 
L 394.185673 192.55428 
L 395.056816 192.891796 
L 395.927523 192.958489 
L 396.797793 193.226477 
L 397.667627 193.288444 
L 398.537027 193.555786 
L 399.405992 193.824583 
L 400.274524 193.948831 
L 401.142622 194.216876 
L 402.010288 194.267322 
L 402.877523 194.535092 
L 403.744326 194.804569 
L 404.610699 194.918306 
L 405.476642 195.187422 
L 406.342156 195.226846 
L 407.207241 195.496052 
L 408.071899 195.76721 
L 408.936129 195.870804 
L 409.799933 196.141984 
L 410.663311 196.415269 
L 411.526263 196.442494 
L 412.38879 196.787317 
L 413.250894 197.063114 
L 414.112574 197.084379 
L 414.973831 197.360931 
L 415.834666 197.711599 
L 416.695079 197.992745 
L 417.555071 198.006753 
L 418.414643 198.288958 
L 419.273795 198.646139 
L 420.132528 198.654632 
L 420.990843 198.940457 
L 421.848739 199.229022 
L 422.706218 199.593383 
L 423.563281 199.59523 
L 424.419927 199.887914 
L 425.276158 200.257361 
L 426.131974 200.555733 
L 426.987376 200.551282 
L 427.842364 200.926134 
L 428.696939 201.229253 
L 429.551101 201.535547 
L 430.404852 201.525143 
L 431.258191 201.908756 
L 432.111119 202.220274 
L 432.963638 202.535152 
L 433.815747 202.929384 
L 434.667447 202.91216 
L 435.518738 203.232731 
L 436.369622 203.633535 
L 437.220099 203.961032 
L 438.070169 204.369807 
L 438.919833 204.704439 
L 439.769092 204.680127 
L 440.617946 205.096053 
L 441.466395 205.437244 
L 442.314441 205.782314 
L 443.162084 206.210395 
L 444.009324 206.563179 
L 444.856163 206.999993 
L 445.702599 206.968573 
L 446.548636 207.328647 
L 447.394271 207.773601 
L 448.239507 208.141869 
L 449.084344 208.596031 
L 449.928783 208.972707 
L 450.772823 209.436292 
L 451.616466 209.821594 
L 452.459713 210.211385 
L 453.302562 210.688969 
L 454.145017 211.087716 
L 454.987075 211.575276 
L 455.82874 211.983205 
L 456.67001 212.480968 
L 457.510887 212.898304 
L 458.35137 213.406503 
L 459.191461 213.833474 
L 460.031161 214.35234 
L 460.870469 214.789177 
L 461.709386 215.318947 
L 462.547913 215.765878 
L 463.38605 216.306788 
L 464.223799 216.764043 
L 465.061158 217.316329 
L 465.89813 217.784136 
L 466.734714 218.348032 
L 467.57091 218.826616 
L 468.406721 219.402352 
L 469.242146 219.98466 
L 470.077185 220.479733 
L 470.911839 221.074221 
L 471.746109 221.580604 
L 472.579995 222.745936 
L 473.413498 223.365292 
L 474.246618 223.894558 
L 475.079356 224.526636 
L 475.911713 225.0677 
L 476.743688 225.712667 
L 477.575282 226.364733 
L 478.406497 227.525325 
L 479.237332 228.196144 
L 480.067787 228.874157 
L 480.897865 229.456839 
L 481.727564 230.775718 
L 482.556885 231.479742 
L 483.38583 232.086102 
L 484.214398 232.803313 
L 485.04259 234.180523 
L 485.870407 234.917451 
L 486.697849 235.552895 
L 487.524916 236.302711 
L 488.351609 237.735906 
L 489.177929 238.504634 
L 490.003876 239.167729 
L 490.82945 240.641673 
L 491.654653 241.433683 
L 492.479484 242.935713 
L 493.303945 243.74444 
L 494.128034 244.559201 
L 494.951754 246.096081 
L 495.775105 246.804918 
L 496.598086 248.361677 
L 497.420699 249.203082 
L 498.242945 250.777555 
L 499.064822 251.6303 
L 499.886333 253.218505 
L 500.707478 254.080539 
L 501.528256 255.678204 
L 502.348669 256.547334 
L 503.168717 258.149992 
L 503.9884 259.023938 
L 504.80772 260.627036 
L 505.626675 262.226463 
L 506.445268 263.102497 
L 507.263498 264.838668 
L 508.081366 266.424487 
L 508.898873 268.000158 
L 509.716018 268.870264 
L 510.532803 270.429609 
L 511.349228 272.130078 
L 512.165293 273.661786 
L 512.980998 275.176781 
L 513.796345 276.83747 
L 514.611334 278.317885 
L 515.425965 279.778612 
L 516.240238 281.391171 
L 517.054155 282.812559 
L 517.867715 284.391536 
L 518.680919 285.771546 
L 519.493768 287.315561 
L 520.306262 289.38953 
L 521.118401 290.693581 
L 521.930186 292.173689 
L 522.741618 294.138372 
L 523.552696 295.575345 
L 524.363422 297.465007 
L 525.173796 299.308034 
L 525.983818 300.675621 
L 526.793488 302.680938 
L 527.602808 304.411423 
L 528.411777 306.720536 
L 529.220396 308.609221 
L 530.028666 310.803407 
L 530.836587 312.624486 
L 531.644159 315.021198 
L 532.451383 317.370936 
L 533.25826 320.317644 
L 534.064789 324.211861 
L 534.870972 328.899545 
L 535.676808 339.84 
L 536.482298 339.84 
L 537.287443 339.84 
L 538.092242 339.84 
L 538.896698 339.84 
L 539.700809 339.84 
L 540.504576 339.84 
L 541.308 339.84 
L 542.111082 339.84 
L 542.913821 339.84 
L 543.716218 339.84 
L 544.518273 339.84 
L 545.319988 339.84 
L 546.121362 339.84 
L 546.922396 339.84 
L 547.72309 339.84 
L 548.523444 339.84 
L 549.32346 339.84 
L 550.123138 339.84 
L 550.922477 339.84 
L 551.721479 339.84 
L 552.520143 339.84 
L 553.318471 339.84 
L 554.116463 339.84 
L 554.116463 339.84 
L 554.116463 339.84 
L 553.318471 339.84 
L 552.520143 339.84 
L 551.721479 339.84 
L 550.922477 339.84 
L 550.123138 339.84 
L 549.32346 339.84 
L 548.523444 339.84 
L 547.72309 339.84 
L 546.922396 339.84 
L 546.121362 339.84 
L 545.319988 339.84 
L 544.518273 339.84 
L 543.716218 339.84 
L 542.913821 339.84 
L 542.111082 339.84 
L 541.308 339.84 
L 540.504576 339.84 
L 539.700809 339.84 
L 538.896698 339.84 
L 538.092242 339.84 
L 537.287443 339.84 
L 536.482298 339.84 
L 535.676808 339.84 
L 534.870972 339.84 
L 534.064789 339.84 
L 533.25826 339.84 
L 532.451383 339.84 
L 531.644159 339.84 
L 530.836587 339.84 
L 530.028666 339.84 
L 529.220396 339.84 
L 528.411777 339.84 
L 527.602808 339.84 
L 526.793488 339.84 
L 525.983818 339.84 
L 525.173796 339.84 
L 524.363422 339.84 
L 523.552696 339.84 
L 522.741618 339.84 
L 521.930186 339.84 
L 521.118401 339.84 
L 520.306262 339.84 
L 519.493768 339.84 
L 518.680919 339.84 
L 517.867715 339.84 
L 517.054155 339.84 
L 516.240238 339.84 
L 515.425965 339.84 
L 514.611334 339.84 
L 513.796345 339.84 
L 512.980998 339.84 
L 512.165293 339.84 
L 511.349228 339.84 
L 510.532803 339.84 
L 509.716018 339.84 
L 508.898873 339.84 
L 508.081366 339.84 
L 507.263498 339.84 
L 506.445268 339.84 
L 505.626675 339.84 
L 504.80772 339.84 
L 503.9884 339.84 
L 503.168717 339.84 
L 502.348669 339.84 
L 501.528256 339.84 
L 500.707478 339.84 
L 499.886333 339.84 
L 499.064822 339.84 
L 498.242945 339.84 
L 497.420699 339.84 
L 496.598086 339.84 
L 495.775105 339.84 
L 494.951754 339.84 
L 494.128034 339.84 
L 493.303945 339.84 
L 492.479484 339.84 
L 491.654653 339.84 
L 490.82945 339.84 
L 490.003876 339.84 
L 489.177929 339.84 
L 488.351609 339.84 
L 487.524916 339.84 
L 486.697849 339.84 
L 485.870407 339.84 
L 485.04259 339.84 
L 484.214398 339.84 
L 483.38583 339.84 
L 482.556885 339.84 
L 481.727564 339.84 
L 480.897865 339.84 
L 480.067787 339.84 
L 479.237332 339.84 
L 478.406497 339.84 
L 477.575282 339.84 
L 476.743688 339.84 
L 475.911713 339.84 
L 475.079356 339.84 
L 474.246618 339.84 
L 473.413498 339.84 
L 472.579995 339.84 
L 471.746109 339.84 
L 470.911839 339.84 
L 470.077185 339.84 
L 469.242146 339.84 
L 468.406721 339.84 
L 467.57091 339.84 
L 466.734714 339.84 
L 465.89813 339.84 
L 465.061158 339.84 
L 464.223799 339.84 
L 463.38605 339.84 
L 462.547913 339.84 
L 461.709386 339.84 
L 460.870469 339.84 
L 460.031161 339.84 
L 459.191461 339.84 
L 458.35137 339.84 
L 457.510887 339.84 
L 456.67001 339.84 
L 455.82874 339.84 
L 454.987075 339.84 
L 454.145017 339.84 
L 453.302562 339.84 
L 452.459713 339.84 
L 451.616466 339.84 
L 450.772823 339.84 
L 449.928783 339.84 
L 449.084344 339.84 
L 448.239507 339.84 
L 447.394271 339.84 
L 446.548636 339.84 
L 445.702599 339.84 
L 444.856163 339.84 
L 444.009324 339.84 
L 443.162084 339.84 
L 442.314441 339.84 
L 441.466395 339.84 
L 440.617946 339.84 
L 439.769092 339.84 
L 438.919833 339.84 
L 438.070169 339.84 
L 437.220099 339.84 
L 436.369622 339.84 
L 435.518738 339.84 
L 434.667447 339.84 
L 433.815747 339.84 
L 432.963638 339.84 
L 432.111119 339.84 
L 431.258191 339.84 
L 430.404852 339.84 
L 429.551101 339.84 
L 428.696939 339.84 
L 427.842364 339.84 
L 426.987376 339.84 
L 426.131974 339.84 
L 425.276158 339.84 
L 424.419927 339.84 
L 423.563281 339.84 
L 422.706218 339.84 
L 421.848739 339.84 
L 420.990843 339.84 
L 420.132528 339.84 
L 419.273795 339.84 
L 418.414643 339.84 
L 417.555071 339.84 
L 416.695079 339.84 
L 415.834666 339.84 
L 414.973831 339.84 
L 414.112574 339.84 
L 413.250894 339.84 
L 412.38879 339.84 
L 411.526263 339.84 
L 410.663311 339.84 
L 409.799933 339.84 
L 408.936129 339.84 
L 408.071899 339.84 
L 407.207241 339.84 
L 406.342156 339.84 
L 405.476642 339.84 
L 404.610699 339.84 
L 403.744326 339.84 
L 402.877523 339.84 
L 402.010288 339.84 
L 401.142622 339.84 
L 400.274524 339.84 
L 399.405992 339.84 
L 398.537027 339.84 
L 397.667627 339.84 
L 396.797793 339.84 
L 395.927523 339.84 
L 395.056816 339.84 
L 394.185673 339.84 
L 393.314092 339.84 
L 392.442073 339.84 
L 391.569614 339.84 
L 390.696717 339.84 
L 389.823379 339.84 
L 388.9496 339.84 
L 388.075379 339.84 
L 387.200717 339.84 
L 386.325611 339.84 
L 385.450062 339.84 
L 384.574068 339.84 
L 383.69763 339.84 
L 382.820746 339.84 
L 381.943415 339.84 
L 381.065638 339.84 
L 380.187413 339.84 
L 379.30874 339.84 
L 378.429617 339.84 
L 377.550045 339.84 
L 376.670022 339.84 
L 375.789549 339.84 
L 374.908623 339.84 
L 374.027245 339.84 
L 373.145414 339.84 
L 372.263128 339.84 
L 371.380389 339.84 
L 370.497193 339.84 
L 369.613542 339.84 
L 368.729434 339.84 
L 367.844869 339.84 
L 366.959846 339.84 
L 366.074363 339.84 
L 365.188422 339.84 
L 364.302019 339.84 
L 363.415156 339.84 
L 362.527831 339.84 
L 361.640044 339.84 
L 360.751793 339.84 
L 359.863079 339.84 
L 358.9739 339.84 
L 358.084255 339.84 
L 357.194145 339.84 
L 356.303568 339.84 
L 355.412523 339.84 
L 354.52101 339.84 
L 353.629027 339.84 
L 352.736575 339.84 
L 351.843653 339.84 
L 350.950259 339.84 
L 350.056393 339.84 
L 349.162055 339.84 
L 348.267243 339.84 
L 347.371956 339.84 
L 346.476195 339.84 
L 345.579958 339.84 
L 344.683244 339.84 
L 343.786054 339.84 
L 342.888385 339.84 
L 341.990237 339.84 
L 341.091609 339.84 
L 340.192502 339.84 
L 339.292913 339.84 
L 338.392842 339.84 
L 337.492289 339.84 
L 336.591252 339.84 
L 335.689731 339.84 
L 334.787724 339.84 
L 333.885232 339.84 
L 332.982254 339.84 
L 332.078788 339.84 
L 331.174834 339.84 
L 330.270391 339.84 
L 329.365458 339.84 
L 328.460035 339.84 
L 327.55412 339.84 
L 326.647713 339.84 
L 325.740814 339.84 
L 324.83342 339.84 
L 323.925532 339.84 
L 323.017149 339.84 
L 322.108269 339.84 
L 321.198892 339.84 
L 320.289018 339.84 
L 319.378645 339.84 
L 318.467772 339.84 
L 317.5564 339.84 
L 316.644526 339.84 
L 315.73215 339.84 
L 314.819271 339.84 
L 313.905889 339.84 
L 312.992003 339.84 
L 312.077611 339.84 
L 311.162713 339.84 
L 310.247308 339.84 
L 309.331395 339.84 
L 308.414974 339.84 
L 307.498043 339.84 
L 306.580602 339.84 
L 305.66265 339.84 
L 304.744186 339.84 
L 303.825208 339.84 
L 302.905717 339.84 
L 301.985712 339.84 
L 301.065191 339.84 
L 300.144153 339.84 
L 299.222599 339.84 
L 298.300526 339.84 
L 297.377934 339.84 
L 296.454823 339.84 
L 295.531191 339.84 
L 294.607037 339.84 
L 293.68236 339.84 
L 292.757161 339.84 
L 291.831437 339.84 
L 290.905187 339.84 
L 289.978412 339.84 
L 289.05111 339.84 
L 288.12328 339.84 
L 287.194921 339.84 
L 286.266033 339.84 
L 285.336614 339.84 
L 284.406663 339.84 
L 283.476181 339.84 
L 282.545164 339.84 
L 281.613614 339.84 
L 280.681528 339.84 
L 279.748907 339.84 
L 278.815748 339.84 
L 277.882052 339.84 
L 276.947816 339.84 
L 276.013041 339.84 
L 275.077725 339.84 
L 274.141868 339.84 
L 273.205468 339.84 
L 272.268524 339.84 
L 271.331036 339.84 
L 270.393002 339.84 
L 269.454422 339.84 
L 268.515295 339.84 
L 267.575619 339.84 
L 266.635394 339.84 
L 265.694619 339.84 
L 264.753292 339.84 
L 263.811414 339.84 
L 262.868982 339.84 
L 261.925996 339.84 
L 260.982455 339.84 
L 260.038358 339.84 
L 259.093704 339.84 
L 258.148492 339.84 
L 257.20272 339.84 
L 256.256389 339.84 
L 255.309497 339.84 
L 254.362042 339.84 
L 253.414025 339.84 
L 252.465443 339.84 
L 251.516297 339.84 
L 250.566584 339.84 
L 249.616304 339.84 
L 248.665457 339.84 
L 247.71404 339.84 
L 246.762053 339.84 
L 245.809494 339.84 
L 244.856364 339.84 
L 243.90266 339.84 
L 242.948383 339.84 
L 241.993529 339.84 
L 241.0381 339.84 
L 240.082093 339.84 
L 239.125508 339.84 
L 238.168343 339.84 
L 237.210597 339.84 
L 236.25227 339.84 
L 235.293361 339.84 
L 234.333867 339.84 
L 233.373789 339.84 
L 232.413125 339.84 
L 231.451874 339.84 
L 230.490035 339.84 
L 229.527607 339.84 
L 228.564589 339.84 
L 227.60098 339.84 
L 226.636778 339.84 
L 225.671983 339.84 
L 224.706593 339.84 
L 223.740607 339.84 
L 222.774025 339.84 
L 221.806845 339.84 
L 220.839066 339.84 
L 219.870687 339.84 
L 218.901707 339.84 
L 217.932124 339.84 
L 216.961938 339.84 
L 215.991147 339.84 
L 215.019751 339.84 
L 214.047748 339.84 
L 213.075136 339.84 
L 212.101916 339.84 
L 211.128086 339.84 
L 210.153644 339.84 
L 209.178589 339.84 
L 208.202921 339.84 
L 207.226638 339.84 
L 206.249738 339.84 
L 205.272222 339.84 
L 204.294087 339.84 
L 203.315333 339.84 
L 202.335958 339.84 
L 201.355961 339.84 
L 200.37534 339.84 
L 199.394096 339.84 
L 198.412226 339.84 
L 197.429729 339.84 
L 196.446605 339.84 
L 195.462851 339.84 
L 194.478467 339.84 
L 193.493452 339.84 
L 192.507804 339.84 
L 191.521521 339.84 
L 190.534604 339.84 
L 189.54705 339.84 
L 188.558859 339.84 
L 187.570029 339.84 
L 186.580558 339.84 
L 185.590446 339.84 
L 184.599692 339.84 
L 183.608294 339.84 
L 182.61625 339.84 
L 181.62356 339.84 
L 180.630223 339.84 
L 179.636237 339.84 
L 178.6416 339.84 
L 177.646312 339.84 
L 176.650371 339.84 
L 175.653776 339.84 
L 174.656526 339.84 
L 173.658619 339.84 
L 172.660055 339.84 
L 171.660831 339.84 
L 170.660946 339.84 
L 169.6604 339.84 
L 168.65919 339.84 
L 167.657316 339.84 
L 166.654777 339.84 
L 165.65157 339.84 
L 164.647694 339.84 
L 163.643149 339.84 
L 162.637933 339.84 
L 161.632044 339.84 
L 160.625481 339.84 
L 159.618243 339.84 
L 158.610329 339.84 
L 157.601736 339.84 
L 156.592464 339.84 
L 155.582512 339.84 
L 154.571878 339.84 
L 153.56056 339.84 
L 152.548557 339.84 
L 151.535868 339.84 
L 150.522491 339.84 
L 149.508426 339.84 
L 148.49367 339.84 
L 147.478222 339.84 
L 146.462081 339.84 
L 145.445245 339.84 
L 144.427713 339.84 
L 143.409484 339.84 
L 142.390555 339.84 
L 141.370926 339.84 
L 140.350596 339.84 
L 139.329562 339.84 
L 138.307823 339.84 
L 137.285378 339.84 
L 136.262225 339.84 
L 135.238363 339.84 
L 134.213791 339.84 
L 133.188506 339.84 
L 132.162508 339.84 
L 131.135795 339.84 
L 130.108365 339.84 
L 129.080216 339.84 
L 128.051349 339.84 
L 127.02176 339.84 
L 125.991448 339.84 
L 124.960413 339.84 
L 123.928651 339.84 
L 122.896163 339.84 
L 121.862946 339.84 
L 120.828998 339.84 
L 119.794318 339.84 
L 118.758905 339.84 
L 117.722757 339.84 
L 116.685873 339.84 
L 115.64825 339.84 
L 114.609888 339.84 
L 113.570784 339.84 
L 112.530938 339.84 
L 111.490347 339.84 
L 110.44901 339.84 
L 109.406925 339.84 
L 108.364091 339.84 
L 107.320506 339.84 
L 106.276168 339.84 
L 105.231077 339.84 
L 104.185229 339.84 
L 103.138624 339.84 
L 102.09126 339.84 
z
" clip-path="url(#pbb86460b54)" style="fill: #1f77b4; fill-opacity: 0.5"/>
   </g>
   <g id="matplotlib.axis_1">
    <g id="xtick_1">
     <g id="line2d_1">
      <defs>
       <path id="m46e354cc83" d="M 0 0 
L 0 3.5 
" style="stroke: #000000; stroke-width: 0.8"/>
      </defs>
      <g>
       <use xlink:href="#m46e354cc83" x="136.86243" y="339.84" style="stroke: #000000; stroke-width: 0.8"/>
      </g>
     </g>
     <g id="text_1">
      <!-- 1.7 -->
      <g transform="translate(124.13993 358.9975) scale(0.16 -0.16)">
       <defs>
        <path id="DejaVuSans-31" d="M 794 531 
L 1825 531 
L 1825 4091 
L 703 3866 
L 703 4441 
L 1819 4666 
L 2450 4666 
L 2450 531 
L 3481 531 
L 3481 0 
L 794 0 
L 794 531 
z
" transform="scale(0.015625)"/>
        <path id="DejaVuSans-2e" d="M 684 794 
L 1344 794 
L 1344 0 
L 684 0 
L 684 794 
z
" transform="scale(0.015625)"/>
        <path id="DejaVuSans-37" d="M 525 4666 
L 3525 4666 
L 3525 4397 
L 1831 0 
L 1172 0 
L 2766 4134 
L 525 4134 
L 525 4666 
z
" transform="scale(0.015625)"/>
       </defs>
       <use xlink:href="#DejaVuSans-31"/>
       <use xlink:href="#DejaVuSans-2e" x="63.623047"/>
       <use xlink:href="#DejaVuSans-37" x="95.410156"/>
      </g>
     </g>
    </g>
    <g id="xtick_2">
     <g id="line2d_2">
      <g>
       <use xlink:href="#m46e354cc83" x="223.790353" y="339.84" style="stroke: #000000; stroke-width: 0.8"/>
      </g>
     </g>
     <g id="text_2">
      <!-- 1.8 -->
      <g transform="translate(211.067853 358.9975) scale(0.16 -0.16)">
       <defs>
        <path id="DejaVuSans-38" d="M 2034 2216 
Q 1584 2216 1326 1975 
Q 1069 1734 1069 1313 
Q 1069 891 1326 650 
Q 1584 409 2034 409 
Q 2484 409 2743 651 
Q 3003 894 3003 1313 
Q 3003 1734 2745 1975 
Q 2488 2216 2034 2216 
z
M 1403 2484 
Q 997 2584 770 2862 
Q 544 3141 544 3541 
Q 544 4100 942 4425 
Q 1341 4750 2034 4750 
Q 2731 4750 3128 4425 
Q 3525 4100 3525 3541 
Q 3525 3141 3298 2862 
Q 3072 2584 2669 2484 
Q 3125 2378 3379 2068 
Q 3634 1759 3634 1313 
Q 3634 634 3220 271 
Q 2806 -91 2034 -91 
Q 1263 -91 848 271 
Q 434 634 434 1313 
Q 434 1759 690 2068 
Q 947 2378 1403 2484 
z
M 1172 3481 
Q 1172 3119 1398 2916 
Q 1625 2713 2034 2713 
Q 2441 2713 2670 2916 
Q 2900 3119 2900 3481 
Q 2900 3844 2670 4047 
Q 2441 4250 2034 4250 
Q 1625 4250 1398 4047 
Q 1172 3844 1172 3481 
z
" transform="scale(0.015625)"/>
       </defs>
       <use xlink:href="#DejaVuSans-31"/>
       <use xlink:href="#DejaVuSans-2e" x="63.623047"/>
       <use xlink:href="#DejaVuSans-38" x="95.410156"/>
      </g>
     </g>
    </g>
    <g id="xtick_3">
     <g id="line2d_3">
      <g>
       <use xlink:href="#m46e354cc83" x="310.718277" y="339.84" style="stroke: #000000; stroke-width: 0.8"/>
      </g>
     </g>
     <g id="text_3">
      <!-- 1.9 -->
      <g transform="translate(297.995777 358.9975) scale(0.16 -0.16)">
       <defs>
        <path id="DejaVuSans-39" d="M 703 97 
L 703 672 
Q 941 559 1184 500 
Q 1428 441 1663 441 
Q 2288 441 2617 861 
Q 2947 1281 2994 2138 
Q 2813 1869 2534 1725 
Q 2256 1581 1919 1581 
Q 1219 1581 811 2004 
Q 403 2428 403 3163 
Q 403 3881 828 4315 
Q 1253 4750 1959 4750 
Q 2769 4750 3195 4129 
Q 3622 3509 3622 2328 
Q 3622 1225 3098 567 
Q 2575 -91 1691 -91 
Q 1453 -91 1209 -44 
Q 966 3 703 97 
z
M 1959 2075 
Q 2384 2075 2632 2365 
Q 2881 2656 2881 3163 
Q 2881 3666 2632 3958 
Q 2384 4250 1959 4250 
Q 1534 4250 1286 3958 
Q 1038 3666 1038 3163 
Q 1038 2656 1286 2365 
Q 1534 2075 1959 2075 
z
" transform="scale(0.015625)"/>
       </defs>
       <use xlink:href="#DejaVuSans-31"/>
       <use xlink:href="#DejaVuSans-2e" x="63.623047"/>
       <use xlink:href="#DejaVuSans-39" x="95.410156"/>
      </g>
     </g>
    </g>
    <g id="xtick_4">
     <g id="line2d_4">
      <g>
       <use xlink:href="#m46e354cc83" x="397.6462" y="339.84" style="stroke: #000000; stroke-width: 0.8"/>
      </g>
     </g>
     <g id="text_4">
      <!-- 2.0 -->
      <g transform="translate(384.9237 358.9975) scale(0.16 -0.16)">
       <defs>
        <path id="DejaVuSans-32" d="M 1228 531 
L 3431 531 
L 3431 0 
L 469 0 
L 469 531 
Q 828 903 1448 1529 
Q 2069 2156 2228 2338 
Q 2531 2678 2651 2914 
Q 2772 3150 2772 3378 
Q 2772 3750 2511 3984 
Q 2250 4219 1831 4219 
Q 1534 4219 1204 4116 
Q 875 4013 500 3803 
L 500 4441 
Q 881 4594 1212 4672 
Q 1544 4750 1819 4750 
Q 2544 4750 2975 4387 
Q 3406 4025 3406 3419 
Q 3406 3131 3298 2873 
Q 3191 2616 2906 2266 
Q 2828 2175 2409 1742 
Q 1991 1309 1228 531 
z
" transform="scale(0.015625)"/>
        <path id="DejaVuSans-30" d="M 2034 4250 
Q 1547 4250 1301 3770 
Q 1056 3291 1056 2328 
Q 1056 1369 1301 889 
Q 1547 409 2034 409 
Q 2525 409 2770 889 
Q 3016 1369 3016 2328 
Q 3016 3291 2770 3770 
Q 2525 4250 2034 4250 
z
M 2034 4750 
Q 2819 4750 3233 4129 
Q 3647 3509 3647 2328 
Q 3647 1150 3233 529 
Q 2819 -91 2034 -91 
Q 1250 -91 836 529 
Q 422 1150 422 2328 
Q 422 3509 836 4129 
Q 1250 4750 2034 4750 
z
" transform="scale(0.015625)"/>
       </defs>
       <use xlink:href="#DejaVuSans-32"/>
       <use xlink:href="#DejaVuSans-2e" x="63.623047"/>
       <use xlink:href="#DejaVuSans-30" x="95.410156"/>
      </g>
     </g>
    </g>
    <g id="xtick_5">
     <g id="line2d_5">
      <g>
       <use xlink:href="#m46e354cc83" x="484.574124" y="339.84" style="stroke: #000000; stroke-width: 0.8"/>
      </g>
     </g>
     <g id="text_5">
      <!-- 2.1 -->
      <g transform="translate(471.851624 358.9975) scale(0.16 -0.16)">
       <use xlink:href="#DejaVuSans-32"/>
       <use xlink:href="#DejaVuSans-2e" x="63.623047"/>
       <use xlink:href="#DejaVuSans-31" x="95.410156"/>
      </g>
     </g>
    </g>
    <g id="xtick_6">
     <g id="line2d_6">
      <g>
       <use xlink:href="#m46e354cc83" x="571.502047" y="339.84" style="stroke: #000000; stroke-width: 0.8"/>
      </g>
     </g>
     <g id="text_6">
      <!-- 2.2 -->
      <g transform="translate(558.779547 358.9975) scale(0.16 -0.16)">
       <use xlink:href="#DejaVuSans-32"/>
       <use xlink:href="#DejaVuSans-2e" x="63.623047"/>
       <use xlink:href="#DejaVuSans-32" x="95.410156"/>
      </g>
     </g>
    </g>
    <g id="text_7">
     <!-- $M\left(K^0\Sigma^+\right)$ -->
     <g transform="translate(293.143861 379.7975) scale(0.16 -0.16)">
      <defs>
       <path id="DejaVuSans-Oblique-4d" d="M 1081 4666 
L 2028 4666 
L 2572 1522 
L 4378 4666 
L 5350 4666 
L 4441 0 
L 3828 0 
L 4622 4091 
L 2791 897 
L 2175 897 
L 1581 4103 
L 788 0 
L 172 0 
L 1081 4666 
z
" transform="scale(0.015625)"/>
       <path id="DejaVuSans-28" d="M 1984 4856 
Q 1566 4138 1362 3434 
Q 1159 2731 1159 2009 
Q 1159 1288 1364 580 
Q 1569 -128 1984 -844 
L 1484 -844 
Q 1016 -109 783 600 
Q 550 1309 550 2009 
Q 550 2706 781 3412 
Q 1013 4119 1484 4856 
L 1984 4856 
z
" transform="scale(0.015625)"/>
       <path id="DejaVuSans-Oblique-4b" d="M 1081 4666 
L 1716 4666 
L 1331 2700 
L 3781 4666 
L 4622 4666 
L 1850 2438 
L 3878 0 
L 3109 0 
L 1247 2272 
L 806 0 
L 172 0 
L 1081 4666 
z
" transform="scale(0.015625)"/>
       <path id="DejaVuSans-3a3" d="M 1353 531 
L 3634 531 
L 3634 0 
L 628 0 
L 628 531 
L 2125 2481 
L 628 4134 
L 628 4666 
L 3578 4666 
L 3578 4134 
L 1353 4134 
L 2850 2494 
L 1353 531 
z
" transform="scale(0.015625)"/>
       <path id="DejaVuSans-2b" d="M 2944 4013 
L 2944 2272 
L 4684 2272 
L 4684 1741 
L 2944 1741 
L 2944 0 
L 2419 0 
L 2419 1741 
L 678 1741 
L 678 2272 
L 2419 2272 
L 2419 4013 
L 2944 4013 
z
" transform="scale(0.015625)"/>
       <path id="DejaVuSans-29" d="M 513 4856 
L 1013 4856 
Q 1481 4119 1714 3412 
Q 1947 2706 1947 2009 
Q 1947 1309 1714 600 
Q 1481 -109 1013 -844 
L 513 -844 
Q 928 -128 1133 580 
Q 1338 1288 1338 2009 
Q 1338 2731 1133 3434 
Q 928 4138 513 4856 
z
" transform="scale(0.015625)"/>
      </defs>
      <use xlink:href="#DejaVuSans-Oblique-4d" transform="translate(0 0.765625)"/>
      <use xlink:href="#DejaVuSans-28" transform="translate(86.279297 0.765625)"/>
      <use xlink:href="#DejaVuSans-Oblique-4b" transform="translate(125.292969 0.765625)"/>
      <use xlink:href="#DejaVuSans-30" transform="translate(197.885911 39.046875) scale(0.7)"/>
      <use xlink:href="#DejaVuSans-3a3" transform="translate(245.156419 0.765625)"/>
      <use xlink:href="#DejaVuSans-2b" transform="translate(322.93474 39.046875) scale(0.7)"/>
      <use xlink:href="#DejaVuSans-29" transform="translate(397.959154 0.765625)"/>
     </g>
    </g>
   </g>
   <g id="matplotlib.axis_2">
    <g id="ytick_1">
     <g id="line2d_7">
      <defs>
       <path id="me9aa0bf82b" d="M 0 0 
L -3.5 0 
" style="stroke: #000000; stroke-width: 0.8"/>
      </defs>
      <g>
       <use xlink:href="#me9aa0bf82b" x="79.49" y="339.84" style="stroke: #000000; stroke-width: 0.8"/>
      </g>
     </g>
     <g id="text_8">
      <!-- 0.000 -->
      <g transform="translate(26.685 345.91875) scale(0.16 -0.16)">
       <use xlink:href="#DejaVuSans-30"/>
       <use xlink:href="#DejaVuSans-2e" x="63.623047"/>
       <use xlink:href="#DejaVuSans-30" x="95.410156"/>
       <use xlink:href="#DejaVuSans-30" x="159.033203"/>
       <use xlink:href="#DejaVuSans-30" x="222.65625"/>
      </g>
     </g>
    </g>
    <g id="ytick_2">
     <g id="line2d_8">
      <g>
       <use xlink:href="#me9aa0bf82b" x="79.49" y="268.061004" style="stroke: #000000; stroke-width: 0.8"/>
      </g>
     </g>
     <g id="text_9">
      <!-- 0.001 -->
      <g transform="translate(26.685 274.139754) scale(0.16 -0.16)">
       <use xlink:href="#DejaVuSans-30"/>
       <use xlink:href="#DejaVuSans-2e" x="63.623047"/>
       <use xlink:href="#DejaVuSans-30" x="95.410156"/>
       <use xlink:href="#DejaVuSans-30" x="159.033203"/>
       <use xlink:href="#DejaVuSans-31" x="222.65625"/>
      </g>
     </g>
    </g>
    <g id="ytick_3">
     <g id="line2d_9">
      <g>
       <use xlink:href="#me9aa0bf82b" x="79.49" y="196.282008" style="stroke: #000000; stroke-width: 0.8"/>
      </g>
     </g>
     <g id="text_10">
      <!-- 0.002 -->
      <g transform="translate(26.685 202.360758) scale(0.16 -0.16)">
       <use xlink:href="#DejaVuSans-30"/>
       <use xlink:href="#DejaVuSans-2e" x="63.623047"/>
       <use xlink:href="#DejaVuSans-30" x="95.410156"/>
       <use xlink:href="#DejaVuSans-30" x="159.033203"/>
       <use xlink:href="#DejaVuSans-32" x="222.65625"/>
      </g>
     </g>
    </g>
    <g id="ytick_4">
     <g id="line2d_10">
      <g>
       <use xlink:href="#me9aa0bf82b" x="79.49" y="124.503011" style="stroke: #000000; stroke-width: 0.8"/>
      </g>
     </g>
     <g id="text_11">
      <!-- 0.003 -->
      <g transform="translate(26.685 130.581761) scale(0.16 -0.16)">
       <defs>
        <path id="DejaVuSans-33" d="M 2597 2516 
Q 3050 2419 3304 2112 
Q 3559 1806 3559 1356 
Q 3559 666 3084 287 
Q 2609 -91 1734 -91 
Q 1441 -91 1130 -33 
Q 819 25 488 141 
L 488 750 
Q 750 597 1062 519 
Q 1375 441 1716 441 
Q 2309 441 2620 675 
Q 2931 909 2931 1356 
Q 2931 1769 2642 2001 
Q 2353 2234 1838 2234 
L 1294 2234 
L 1294 2753 
L 1863 2753 
Q 2328 2753 2575 2939 
Q 2822 3125 2822 3475 
Q 2822 3834 2567 4026 
Q 2313 4219 1838 4219 
Q 1578 4219 1281 4162 
Q 984 4106 628 3988 
L 628 4550 
Q 988 4650 1302 4700 
Q 1616 4750 1894 4750 
Q 2613 4750 3031 4423 
Q 3450 4097 3450 3541 
Q 3450 3153 3228 2886 
Q 3006 2619 2597 2516 
z
" transform="scale(0.015625)"/>
       </defs>
       <use xlink:href="#DejaVuSans-30"/>
       <use xlink:href="#DejaVuSans-2e" x="63.623047"/>
       <use xlink:href="#DejaVuSans-30" x="95.410156"/>
       <use xlink:href="#DejaVuSans-30" x="159.033203"/>
       <use xlink:href="#DejaVuSans-33" x="222.65625"/>
      </g>
     </g>
    </g>
    <g id="ytick_5">
     <g id="line2d_11">
      <g>
       <use xlink:href="#me9aa0bf82b" x="79.49" y="52.724015" style="stroke: #000000; stroke-width: 0.8"/>
      </g>
     </g>
     <g id="text_12">
      <!-- 0.004 -->
      <g transform="translate(26.685 58.802765) scale(0.16 -0.16)">
       <defs>
        <path id="DejaVuSans-34" d="M 2419 4116 
L 825 1625 
L 2419 1625 
L 2419 4116 
z
M 2253 4666 
L 3047 4666 
L 3047 1625 
L 3713 1625 
L 3713 1100 
L 3047 1100 
L 3047 0 
L 2419 0 
L 2419 1100 
L 313 1100 
L 313 1709 
L 2253 4666 
z
" transform="scale(0.015625)"/>
       </defs>
       <use xlink:href="#DejaVuSans-30"/>
       <use xlink:href="#DejaVuSans-2e" x="63.623047"/>
       <use xlink:href="#DejaVuSans-30" x="95.410156"/>
       <use xlink:href="#DejaVuSans-30" x="159.033203"/>
       <use xlink:href="#DejaVuSans-34" x="222.65625"/>
      </g>
     </g>
    </g>
    <g id="text_13">
     <!-- Normalized intensity (a.u.) -->
     <g transform="translate(19.3575 279.95625) rotate(-90) scale(0.16 -0.16)">
      <defs>
       <path id="DejaVuSans-4e" d="M 628 4666 
L 1478 4666 
L 3547 763 
L 3547 4666 
L 4159 4666 
L 4159 0 
L 3309 0 
L 1241 3903 
L 1241 0 
L 628 0 
L 628 4666 
z
" transform="scale(0.015625)"/>
       <path id="DejaVuSans-6f" d="M 1959 3097 
Q 1497 3097 1228 2736 
Q 959 2375 959 1747 
Q 959 1119 1226 758 
Q 1494 397 1959 397 
Q 2419 397 2687 759 
Q 2956 1122 2956 1747 
Q 2956 2369 2687 2733 
Q 2419 3097 1959 3097 
z
M 1959 3584 
Q 2709 3584 3137 3096 
Q 3566 2609 3566 1747 
Q 3566 888 3137 398 
Q 2709 -91 1959 -91 
Q 1206 -91 779 398 
Q 353 888 353 1747 
Q 353 2609 779 3096 
Q 1206 3584 1959 3584 
z
" transform="scale(0.015625)"/>
       <path id="DejaVuSans-72" d="M 2631 2963 
Q 2534 3019 2420 3045 
Q 2306 3072 2169 3072 
Q 1681 3072 1420 2755 
Q 1159 2438 1159 1844 
L 1159 0 
L 581 0 
L 581 3500 
L 1159 3500 
L 1159 2956 
Q 1341 3275 1631 3429 
Q 1922 3584 2338 3584 
Q 2397 3584 2469 3576 
Q 2541 3569 2628 3553 
L 2631 2963 
z
" transform="scale(0.015625)"/>
       <path id="DejaVuSans-6d" d="M 3328 2828 
Q 3544 3216 3844 3400 
Q 4144 3584 4550 3584 
Q 5097 3584 5394 3201 
Q 5691 2819 5691 2113 
L 5691 0 
L 5113 0 
L 5113 2094 
Q 5113 2597 4934 2840 
Q 4756 3084 4391 3084 
Q 3944 3084 3684 2787 
Q 3425 2491 3425 1978 
L 3425 0 
L 2847 0 
L 2847 2094 
Q 2847 2600 2669 2842 
Q 2491 3084 2119 3084 
Q 1678 3084 1418 2786 
Q 1159 2488 1159 1978 
L 1159 0 
L 581 0 
L 581 3500 
L 1159 3500 
L 1159 2956 
Q 1356 3278 1631 3431 
Q 1906 3584 2284 3584 
Q 2666 3584 2933 3390 
Q 3200 3197 3328 2828 
z
" transform="scale(0.015625)"/>
       <path id="DejaVuSans-61" d="M 2194 1759 
Q 1497 1759 1228 1600 
Q 959 1441 959 1056 
Q 959 750 1161 570 
Q 1363 391 1709 391 
Q 2188 391 2477 730 
Q 2766 1069 2766 1631 
L 2766 1759 
L 2194 1759 
z
M 3341 1997 
L 3341 0 
L 2766 0 
L 2766 531 
Q 2569 213 2275 61 
Q 1981 -91 1556 -91 
Q 1019 -91 701 211 
Q 384 513 384 1019 
Q 384 1609 779 1909 
Q 1175 2209 1959 2209 
L 2766 2209 
L 2766 2266 
Q 2766 2663 2505 2880 
Q 2244 3097 1772 3097 
Q 1472 3097 1187 3025 
Q 903 2953 641 2809 
L 641 3341 
Q 956 3463 1253 3523 
Q 1550 3584 1831 3584 
Q 2591 3584 2966 3190 
Q 3341 2797 3341 1997 
z
" transform="scale(0.015625)"/>
       <path id="DejaVuSans-6c" d="M 603 4863 
L 1178 4863 
L 1178 0 
L 603 0 
L 603 4863 
z
" transform="scale(0.015625)"/>
       <path id="DejaVuSans-69" d="M 603 3500 
L 1178 3500 
L 1178 0 
L 603 0 
L 603 3500 
z
M 603 4863 
L 1178 4863 
L 1178 4134 
L 603 4134 
L 603 4863 
z
" transform="scale(0.015625)"/>
       <path id="DejaVuSans-7a" d="M 353 3500 
L 3084 3500 
L 3084 2975 
L 922 459 
L 3084 459 
L 3084 0 
L 275 0 
L 275 525 
L 2438 3041 
L 353 3041 
L 353 3500 
z
" transform="scale(0.015625)"/>
       <path id="DejaVuSans-65" d="M 3597 1894 
L 3597 1613 
L 953 1613 
Q 991 1019 1311 708 
Q 1631 397 2203 397 
Q 2534 397 2845 478 
Q 3156 559 3463 722 
L 3463 178 
Q 3153 47 2828 -22 
Q 2503 -91 2169 -91 
Q 1331 -91 842 396 
Q 353 884 353 1716 
Q 353 2575 817 3079 
Q 1281 3584 2069 3584 
Q 2775 3584 3186 3129 
Q 3597 2675 3597 1894 
z
M 3022 2063 
Q 3016 2534 2758 2815 
Q 2500 3097 2075 3097 
Q 1594 3097 1305 2825 
Q 1016 2553 972 2059 
L 3022 2063 
z
" transform="scale(0.015625)"/>
       <path id="DejaVuSans-64" d="M 2906 2969 
L 2906 4863 
L 3481 4863 
L 3481 0 
L 2906 0 
L 2906 525 
Q 2725 213 2448 61 
Q 2172 -91 1784 -91 
Q 1150 -91 751 415 
Q 353 922 353 1747 
Q 353 2572 751 3078 
Q 1150 3584 1784 3584 
Q 2172 3584 2448 3432 
Q 2725 3281 2906 2969 
z
M 947 1747 
Q 947 1113 1208 752 
Q 1469 391 1925 391 
Q 2381 391 2643 752 
Q 2906 1113 2906 1747 
Q 2906 2381 2643 2742 
Q 2381 3103 1925 3103 
Q 1469 3103 1208 2742 
Q 947 2381 947 1747 
z
" transform="scale(0.015625)"/>
       <path id="DejaVuSans-20" transform="scale(0.015625)"/>
       <path id="DejaVuSans-6e" d="M 3513 2113 
L 3513 0 
L 2938 0 
L 2938 2094 
Q 2938 2591 2744 2837 
Q 2550 3084 2163 3084 
Q 1697 3084 1428 2787 
Q 1159 2491 1159 1978 
L 1159 0 
L 581 0 
L 581 3500 
L 1159 3500 
L 1159 2956 
Q 1366 3272 1645 3428 
Q 1925 3584 2291 3584 
Q 2894 3584 3203 3211 
Q 3513 2838 3513 2113 
z
" transform="scale(0.015625)"/>
       <path id="DejaVuSans-74" d="M 1172 4494 
L 1172 3500 
L 2356 3500 
L 2356 3053 
L 1172 3053 
L 1172 1153 
Q 1172 725 1289 603 
Q 1406 481 1766 481 
L 2356 481 
L 2356 0 
L 1766 0 
Q 1100 0 847 248 
Q 594 497 594 1153 
L 594 3053 
L 172 3053 
L 172 3500 
L 594 3500 
L 594 4494 
L 1172 4494 
z
" transform="scale(0.015625)"/>
       <path id="DejaVuSans-73" d="M 2834 3397 
L 2834 2853 
Q 2591 2978 2328 3040 
Q 2066 3103 1784 3103 
Q 1356 3103 1142 2972 
Q 928 2841 928 2578 
Q 928 2378 1081 2264 
Q 1234 2150 1697 2047 
L 1894 2003 
Q 2506 1872 2764 1633 
Q 3022 1394 3022 966 
Q 3022 478 2636 193 
Q 2250 -91 1575 -91 
Q 1294 -91 989 -36 
Q 684 19 347 128 
L 347 722 
Q 666 556 975 473 
Q 1284 391 1588 391 
Q 1994 391 2212 530 
Q 2431 669 2431 922 
Q 2431 1156 2273 1281 
Q 2116 1406 1581 1522 
L 1381 1569 
Q 847 1681 609 1914 
Q 372 2147 372 2553 
Q 372 3047 722 3315 
Q 1072 3584 1716 3584 
Q 2034 3584 2315 3537 
Q 2597 3491 2834 3397 
z
" transform="scale(0.015625)"/>
       <path id="DejaVuSans-79" d="M 2059 -325 
Q 1816 -950 1584 -1140 
Q 1353 -1331 966 -1331 
L 506 -1331 
L 506 -850 
L 844 -850 
Q 1081 -850 1212 -737 
Q 1344 -625 1503 -206 
L 1606 56 
L 191 3500 
L 800 3500 
L 1894 763 
L 2988 3500 
L 3597 3500 
L 2059 -325 
z
" transform="scale(0.015625)"/>
       <path id="DejaVuSans-75" d="M 544 1381 
L 544 3500 
L 1119 3500 
L 1119 1403 
Q 1119 906 1312 657 
Q 1506 409 1894 409 
Q 2359 409 2629 706 
Q 2900 1003 2900 1516 
L 2900 3500 
L 3475 3500 
L 3475 0 
L 2900 0 
L 2900 538 
Q 2691 219 2414 64 
Q 2138 -91 1772 -91 
Q 1169 -91 856 284 
Q 544 659 544 1381 
z
M 1991 3584 
L 1991 3584 
z
" transform="scale(0.015625)"/>
      </defs>
      <use xlink:href="#DejaVuSans-4e"/>
      <use xlink:href="#DejaVuSans-6f" x="74.804688"/>
      <use xlink:href="#DejaVuSans-72" x="135.986328"/>
      <use xlink:href="#DejaVuSans-6d" x="175.349609"/>
      <use xlink:href="#DejaVuSans-61" x="272.761719"/>
      <use xlink:href="#DejaVuSans-6c" x="334.041016"/>
      <use xlink:href="#DejaVuSans-69" x="361.824219"/>
      <use xlink:href="#DejaVuSans-7a" x="389.607422"/>
      <use xlink:href="#DejaVuSans-65" x="442.097656"/>
      <use xlink:href="#DejaVuSans-64" x="503.621094"/>
      <use xlink:href="#DejaVuSans-20" x="567.097656"/>
      <use xlink:href="#DejaVuSans-69" x="598.884766"/>
      <use xlink:href="#DejaVuSans-6e" x="626.667969"/>
      <use xlink:href="#DejaVuSans-74" x="690.046875"/>
      <use xlink:href="#DejaVuSans-65" x="729.255859"/>
      <use xlink:href="#DejaVuSans-6e" x="790.779297"/>
      <use xlink:href="#DejaVuSans-73" x="854.158203"/>
      <use xlink:href="#DejaVuSans-69" x="906.257812"/>
      <use xlink:href="#DejaVuSans-74" x="934.041016"/>
      <use xlink:href="#DejaVuSans-79" x="973.25"/>
      <use xlink:href="#DejaVuSans-20" x="1032.429688"/>
      <use xlink:href="#DejaVuSans-28" x="1064.216797"/>
      <use xlink:href="#DejaVuSans-61" x="1103.230469"/>
      <use xlink:href="#DejaVuSans-2e" x="1164.509766"/>
      <use xlink:href="#DejaVuSans-75" x="1196.296875"/>
      <use xlink:href="#DejaVuSans-2e" x="1259.675781"/>
      <use xlink:href="#DejaVuSans-29" x="1291.462891"/>
     </g>
    </g>
   </g>
   <g id="line2d_12">
    <path d="M 102.09126 339.84 
L 125.991448 339.768119 
L 137.285378 339.05985 
L 140.350596 339.142275 
L 147.478222 339.646773 
L 154.571878 339.785058 
L 174.656526 339.835117 
L 434.667447 339.839999 
L 554.116463 339.84 
L 554.116463 339.84 
" clip-path="url(#pbb86460b54)" style="fill: none; stroke: #ff7f0e; stroke-width: 1.5; stroke-linecap: square"/>
   </g>
   <g id="line2d_13">
    <path d="M 154.248014 339.84 
L 154.248014 7.2 
" clip-path="url(#pbb86460b54)" style="fill: none; stroke-dasharray: 5.55,2.4; stroke-dashoffset: 0; stroke: #ff7f0e; stroke-width: 1.5"/>
   </g>
   <g id="line2d_14">
    <path d="M 102.09126 339.84 
L 124.960413 339.84 
L 128.051349 328.355907 
L 129.080216 325.192637 
L 130.108365 322.697364 
L 131.135795 321.453213 
L 132.162508 321.427044 
L 133.188506 322.636397 
L 134.213791 324.595897 
L 136.262225 328.839389 
L 137.285378 330.59803 
L 138.307823 332.107792 
L 139.329562 333.333237 
L 141.370926 335.098707 
L 142.390555 335.797985 
L 144.427713 336.781652 
L 146.462081 337.470283 
L 148.49367 337.966021 
L 151.535868 338.477789 
L 155.582512 338.894821 
L 161.632044 339.246341 
L 170.660946 339.5028 
L 186.580558 339.683396 
L 219.870687 339.788223 
L 330.270391 339.833283 
L 554.116463 339.84 
L 554.116463 339.84 
" clip-path="url(#pbb86460b54)" style="fill: none; stroke: #2ca02c; stroke-width: 1.5; stroke-linecap: square"/>
   </g>
   <g id="line2d_15">
    <path d="M 145.555222 339.84 
L 145.555222 7.2 
" clip-path="url(#pbb86460b54)" style="fill: none; stroke-dasharray: 5.55,2.4; stroke-dashoffset: 0; stroke: #2ca02c; stroke-width: 1.5"/>
   </g>
   <g id="line2d_16">
    <path d="M 102.09126 339.84 
L 124.960413 339.84 
L 127.02176 326.959838 
L 129.080216 317.359071 
L 130.108365 313.317756 
L 131.135795 310.398765 
L 132.162508 308.363798 
L 133.188506 307.849309 
L 134.213791 308.821403 
L 135.238363 310.959557 
L 137.285378 316.349881 
L 139.329562 321.79864 
L 141.370926 325.943513 
L 142.390555 327.813681 
L 144.427713 330.507194 
L 146.462081 332.498848 
L 147.478222 333.320061 
L 149.508426 334.587045 
L 151.535868 335.555827 
L 153.56056 336.288133 
L 156.592464 337.08643 
L 159.618243 337.657978 
L 163.643149 338.196113 
L 167.657316 338.56538 
L 173.658619 338.933098 
L 183.608294 339.277236 
L 197.429729 339.513943 
L 223.740607 339.692718 
L 270.393002 339.786346 
L 420.990843 339.833074 
L 554.116463 339.84 
L 554.116463 339.84 
" clip-path="url(#pbb86460b54)" style="fill: none; stroke: #d62728; stroke-width: 1.5; stroke-linecap: square"/>
   </g>
   <g id="line2d_17">
    <path d="M 154.248014 339.84 
L 154.248014 7.2 
" clip-path="url(#pbb86460b54)" style="fill: none; stroke-dasharray: 5.55,2.4; stroke-dashoffset: 0; stroke: #d62728; stroke-width: 1.5"/>
   </g>
   <g id="patch_3">
    <path d="M 79.49 339.84 
L 79.49 7.2 
" style="fill: none; stroke: #000000; stroke-width: 0.8; stroke-linejoin: miter; stroke-linecap: square"/>
   </g>
   <g id="patch_4">
    <path d="M 576.717723 339.84 
L 576.717723 7.2 
" style="fill: none; stroke: #000000; stroke-width: 0.8; stroke-linejoin: miter; stroke-linecap: square"/>
   </g>
   <g id="patch_5">
    <path d="M 79.49 339.84 
L 576.717723 339.84 
" style="fill: none; stroke: #000000; stroke-width: 0.8; stroke-linejoin: miter; stroke-linecap: square"/>
   </g>
   <g id="patch_6">
    <path d="M 79.49 7.2 
L 576.717723 7.2 
" style="fill: none; stroke: #000000; stroke-width: 0.8; stroke-linejoin: miter; stroke-linecap: square"/>
   </g>
   <g id="legend_1">
    <g id="patch_7">
     <path d="M 473.517723 69.72 
L 568.317723 69.72 
Q 570.717723 69.72 570.717723 67.32 
L 570.717723 15.6 
Q 570.717723 13.2 568.317723 13.2 
L 473.517723 13.2 
Q 471.117723 13.2 471.117723 15.6 
L 471.117723 67.32 
Q 471.117723 69.72 473.517723 69.72 
z
" style="fill: #ffffff; opacity: 0.8; stroke: #cccccc; stroke-linejoin: miter"/>
    </g>
    <g id="line2d_18">
     <path d="M 475.917723 22.944375 
L 487.917723 22.944375 
L 499.917723 22.944375 
" style="fill: none; stroke-dasharray: 5.55,2.4; stroke-dashoffset: 0; stroke: #ff7f0e; stroke-width: 1.5"/>
    </g>
    <g id="text_14">
     <!-- $N(1700)^{+}$ -->
     <g transform="translate(509.517723 27.144375) scale(0.12 -0.12)">
      <defs>
       <path id="DejaVuSans-Oblique-4e" d="M 1081 4666 
L 1931 4666 
L 3219 666 
L 4000 4666 
L 4616 4666 
L 3706 0 
L 2853 0 
L 1569 4025 
L 788 0 
L 172 0 
L 1081 4666 
z
" transform="scale(0.015625)"/>
      </defs>
      <use xlink:href="#DejaVuSans-Oblique-4e" transform="translate(0 0.826562)"/>
      <use xlink:href="#DejaVuSans-28" transform="translate(74.804688 0.826562)"/>
      <use xlink:href="#DejaVuSans-31" transform="translate(113.818359 0.826562)"/>
      <use xlink:href="#DejaVuSans-37" transform="translate(177.441406 0.826562)"/>
      <use xlink:href="#DejaVuSans-30" transform="translate(241.064453 0.826562)"/>
      <use xlink:href="#DejaVuSans-30" transform="translate(304.6875 0.826562)"/>
      <use xlink:href="#DejaVuSans-29" transform="translate(368.310547 0.826562)"/>
      <use xlink:href="#DejaVuSans-2b" transform="translate(408.28125 39.107812) scale(0.7)"/>
     </g>
    </g>
    <g id="line2d_19">
     <path d="M 475.917723 40.584375 
L 487.917723 40.584375 
L 499.917723 40.584375 
" style="fill: none; stroke-dasharray: 5.55,2.4; stroke-dashoffset: 0; stroke: #2ca02c; stroke-width: 1.5"/>
    </g>
    <g id="text_15">
     <!-- $N(1710)^{+}$ -->
     <g transform="translate(509.517723 44.784375) scale(0.12 -0.12)">
      <use xlink:href="#DejaVuSans-Oblique-4e" transform="translate(0 0.826562)"/>
      <use xlink:href="#DejaVuSans-28" transform="translate(74.804688 0.826562)"/>
      <use xlink:href="#DejaVuSans-31" transform="translate(113.818359 0.826562)"/>
      <use xlink:href="#DejaVuSans-37" transform="translate(177.441406 0.826562)"/>
      <use xlink:href="#DejaVuSans-31" transform="translate(241.064453 0.826562)"/>
      <use xlink:href="#DejaVuSans-30" transform="translate(304.6875 0.826562)"/>
      <use xlink:href="#DejaVuSans-29" transform="translate(368.310547 0.826562)"/>
      <use xlink:href="#DejaVuSans-2b" transform="translate(408.28125 39.107812) scale(0.7)"/>
     </g>
    </g>
    <g id="line2d_20">
     <path d="M 475.917723 58.224375 
L 487.917723 58.224375 
L 499.917723 58.224375 
" style="fill: none; stroke-dasharray: 5.55,2.4; stroke-dashoffset: 0; stroke: #d62728; stroke-width: 1.5"/>
    </g>
    <g id="text_16">
     <!-- $N(1720)^{+}$ -->
     <g transform="translate(509.517723 62.424375) scale(0.12 -0.12)">
      <use xlink:href="#DejaVuSans-Oblique-4e" transform="translate(0 0.826562)"/>
      <use xlink:href="#DejaVuSans-28" transform="translate(74.804688 0.826562)"/>
      <use xlink:href="#DejaVuSans-31" transform="translate(113.818359 0.826562)"/>
      <use xlink:href="#DejaVuSans-37" transform="translate(177.441406 0.826562)"/>
      <use xlink:href="#DejaVuSans-32" transform="translate(241.064453 0.826562)"/>
      <use xlink:href="#DejaVuSans-30" transform="translate(304.6875 0.826562)"/>
      <use xlink:href="#DejaVuSans-29" transform="translate(368.310547 0.826562)"/>
      <use xlink:href="#DejaVuSans-2b" transform="translate(408.28125 39.107812) scale(0.7)"/>
     </g>
    </g>
   </g>
  </g>
  <g id="axes_2">
   <g id="patch_8">
    <path d="M 586.662277 339.84 
L 1083.89 339.84 
L 1083.89 7.2 
L 586.662277 7.2 
z
" style="fill: #ffffff"/>
   </g>
   <g id="PolyCollection_2">
    <path d="M 609.263537 339.84 
L 609.263537 339.84 
L 610.340381 339.84 
L 611.416255 339.84 
L 612.491162 339.84 
L 613.565105 339.84 
L 614.638086 339.84 
L 615.710108 339.84 
L 616.781174 339.84 
L 617.851286 339.84 
L 618.920446 339.84 
L 619.988658 339.84 
L 621.055924 339.84 
L 622.122245 339.84 
L 623.187626 339.84 
L 624.252067 339.84 
L 625.315572 339.84 
L 626.378144 339.84 
L 627.439783 339.84 
L 628.500494 339.84 
L 629.560279 339.84 
L 630.619139 339.84 
L 631.677078 339.84 
L 632.734097 339.84 
L 633.7902 339.84 
L 634.845387 339.84 
L 635.899663 339.84 
L 636.953029 339.84 
L 638.005488 339.84 
L 639.057041 339.84 
L 640.107692 337.12878 
L 641.157442 333.410851 
L 642.206294 331.27949 
L 643.254251 329.510652 
L 644.301314 327.813073 
L 645.347485 326.465307 
L 646.392768 325.146936 
L 647.437164 323.79279 
L 648.480675 322.682224 
L 649.523304 321.543863 
L 650.565053 320.378527 
L 651.605925 319.398329 
L 652.645921 318.469279 
L 653.685043 317.30496 
L 654.723295 316.257469 
L 655.760677 315.482086 
L 656.797193 314.469922 
L 657.832844 313.514682 
L 658.867632 312.461602 
L 659.90156 311.613357 
L 660.934631 310.827556 
L 661.966845 309.71602 
L 662.998205 308.895776 
L 664.028713 308.059316 
L 665.058372 307.12306 
L 666.087183 306.015629 
L 667.115149 305.126613 
L 668.142271 304.220534 
L 669.168552 303.297145 
L 670.193994 302.601864 
L 671.218598 301.645366 
L 672.242367 300.670782 
L 673.265303 299.677793 
L 674.287409 298.66607 
L 675.308684 297.984933 
L 676.329133 296.93835 
L 677.348757 295.872044 
L 678.367558 295.145559 
L 679.385538 294.042536 
L 680.402698 293.187506 
L 681.419042 292.1445 
L 682.43457 291.255683 
L 683.449285 290.175517 
L 684.463189 289.251744 
L 685.476284 288.414207 
L 686.488571 287.173035 
L 687.500053 286.301058 
L 688.510731 285.4132 
L 689.520608 284.10905 
L 690.529685 283.184855 
L 691.537964 282.243908 
L 692.545448 280.873273 
L 693.552137 279.893956 
L 694.558034 278.896952 
L 695.563141 277.881962 
L 696.567459 276.848678 
L 697.570991 275.79679 
L 698.573738 274.287176 
L 699.575703 273.192646 
L 700.576886 272.078469 
L 701.57729 270.944311 
L 702.576916 269.789836 
L 703.575767 268.614706 
L 704.573844 267.418575 
L 705.571149 266.201097 
L 706.567684 264.961922 
L 707.56345 263.7007 
L 708.55845 262.417077 
L 709.552685 261.110699 
L 710.546157 259.781212 
L 711.538867 258.428261 
L 712.530818 257.195242 
L 713.52201 256.164583 
L 714.512447 254.744749 
L 715.502129 253.300124 
L 716.491059 251.830366 
L 717.479237 250.335139 
L 718.466666 248.96936 
L 719.453348 247.424195 
L 720.439284 246.247469 
L 721.424475 244.653246 
L 722.408924 243.195586 
L 723.392632 241.549241 
L 724.375601 239.875413 
L 725.357833 238.588461 
L 726.339328 237.035406 
L 727.32009 235.284126 
L 728.300118 233.504535 
L 729.279416 232.306408 
L 730.257985 230.476233 
L 731.235826 228.617363 
L 732.212941 227.358962 
L 733.189331 225.449054 
L 734.164999 223.701731 
L 735.139946 222.191644 
L 736.114173 220.201947 
L 737.087682 218.382677 
L 738.060474 216.805394 
L 739.032552 214.94116 
L 740.003916 212.847234 
L 740.974568 211.413821 
L 741.944511 209.271215 
L 742.913745 207.803004 
L 743.882272 205.613194 
L 744.850093 203.618504 
L 745.81721 201.876692 
L 746.783625 199.84372 
L 747.749339 198.066085 
L 748.714354 195.99763 
L 749.678671 194.421964 
L 750.642291 192.086116 
L 751.605217 190.485967 
L 752.567449 188.116132 
L 753.528989 186.49499 
L 754.489839 184.34586 
L 755.450001 182.457616 
L 756.409474 180.290385 
L 757.368262 178.642737 
L 758.326366 176.204496 
L 759.283786 174.549192 
L 760.240525 172.368207 
L 761.196584 170.442578 
L 762.151964 168.264619 
L 763.106667 166.613602 
L 764.060694 164.170714 
L 765.014047 162.529356 
L 765.966728 160.388279 
L 766.918736 158.47753 
L 767.870075 156.867144 
L 768.820745 154.769821 
L 769.770748 153.188574 
L 770.720085 150.842696 
L 771.668757 149.294479 
L 772.616767 147.769883 
L 773.564115 145.802669 
L 774.510802 144.323841 
L 775.456831 142.12299 
L 776.402202 140.693517 
L 777.346917 139.296121 
L 778.290978 137.519466 
L 779.234385 136.182387 
L 780.17714 134.881813 
L 781.119244 132.908838 
L 782.060699 131.673496 
L 783.001505 130.478417 
L 783.941665 128.964591 
L 784.88118 127.84154 
L 785.820051 126.761418 
L 786.758279 125.385958 
L 787.695866 124.045435 
L 788.632812 123.082709 
L 789.56912 121.839385 
L 790.504791 120.950251 
L 791.439825 120.105763 
L 792.374224 119.305693 
L 793.30799 118.208731 
L 794.241124 117.47733 
L 795.173626 116.788613 
L 796.105499 115.788964 
L 797.036743 115.161123 
L 797.96736 114.572888 
L 798.897352 114.022995 
L 799.826718 113.111213 
L 800.755462 112.608876 
L 801.683583 112.140277 
L 802.611083 111.703716 
L 803.537963 110.847381 
L 804.464226 110.441904 
L 805.389871 110.062847 
L 806.3149 109.708284 
L 807.239314 109.376277 
L 808.163115 108.545113 
L 809.086303 108.222462 
L 810.008881 107.916533 
L 810.930849 107.625516 
L 811.852208 107.347677 
L 812.772959 106.514189 
L 813.693105 106.226059 
L 814.612645 105.946497 
L 815.531582 105.674284 
L 816.449916 105.408368 
L 817.367648 105.147872 
L 818.28478 104.580728 
L 819.201313 104.293123 
L 820.117248 104.009421 
L 821.032587 103.729504 
L 821.947329 103.453408 
L 822.861478 103.181293 
L 823.775033 102.91341 
L 824.687996 101.984999 
L 825.600367 101.977554 
L 826.512149 101.6877 
L 827.423343 101.403534 
L 828.333949 101.125031 
L 829.243968 100.851899 
L 830.153402 100.583514 
L 831.062252 100.318868 
L 831.970519 99.648189 
L 832.878204 99.350095 
L 833.785308 99.050997 
L 834.691833 98.748082 
L 835.597778 98.438088 
L 836.503147 98.401632 
L 837.407939 98.068397 
L 838.312156 97.716538 
L 839.215798 97.341614 
L 840.118868 97.234766 
L 841.021366 96.803862 
L 841.923292 96.336813 
L 842.824649 95.829406 
L 843.725437 94.55291 
L 844.625658 94.220691 
L 845.525312 93.525102 
L 846.4244 92.775487 
L 847.322924 92.30201 
L 848.220884 91.442775 
L 849.118282 90.523453 
L 850.015119 89.542824 
L 850.911396 88.855492 
L 851.807113 87.756136 
L 852.702272 86.594251 
L 853.596875 85.743456 
L 854.490921 84.46371 
L 855.384412 83.123149 
L 856.277349 81.722856 
L 857.169733 80.662142 
L 858.061565 79.152824 
L 858.952846 77.588348 
L 859.843578 76.38734 
L 860.73376 74.72469 
L 861.623395 73.012967 
L 862.512483 71.690167 
L 863.401025 69.893737 
L 864.289022 68.503802 
L 865.176475 66.632825 
L 866.063385 64.725373 
L 866.949754 63.251807 
L 867.835582 61.286494 
L 868.72087 59.293408 
L 869.605618 57.762556 
L 870.48983 55.729832 
L 871.373504 56.729064 
L 872.256642 54.73866 
L 873.139245 52.736808 
L 874.021314 51.246266 
L 874.902851 49.23838 
L 875.783855 47.761597 
L 876.664328 45.76156 
L 877.544271 44.312589 
L 878.423684 42.334618 
L 879.30257 40.369691 
L 880.180928 38.986319 
L 881.05876 37.06519 
L 881.936066 35.745684 
L 882.812848 36.542998 
L 883.689107 35.335317 
L 884.564843 33.57834 
L 885.440057 32.46192 
L 886.314751 30.790703 
L 887.188924 29.779242 
L 888.062579 28.207461 
L 888.935716 27.314107 
L 889.808337 25.854848 
L 890.68044 27.906133 
L 891.552029 26.592944 
L 892.423104 25.992528 
L 893.293665 24.813822 
L 894.163714 24.364075 
L 895.033251 23.330013 
L 895.902277 23.04 
L 896.770794 25.133811 
L 897.638802 25.025126 
L 898.506302 24.31862 
L 899.373295 24.381577 
L 900.239781 23.840138 
L 901.105763 24.07918 
L 901.97124 27.531132 
L 902.836213 27.255942 
L 903.700684 27.772941 
L 904.564653 27.668324 
L 905.428121 28.362847 
L 906.291089 31.649035 
L 907.153558 32.524742 
L 908.015529 33.487108 
L 908.877002 33.810569 
L 909.737979 34.941147 
L 910.59846 38.671064 
L 911.458446 39.966373 
L 912.317938 41.339676 
L 913.176937 42.057904 
L 914.035443 43.580694 
L 914.893458 48.359772 
L 915.750983 49.290449 
L 916.608018 51.018767 
L 917.464563 52.8097 
L 918.320621 56.986259 
L 919.176191 58.893178 
L 920.031275 60.853439 
L 920.885874 62.137887 
L 921.739987 67.080998 
L 922.593617 69.1817 
L 923.446763 70.602699 
L 924.299427 75.479186 
L 925.15161 77.691208 
L 926.003311 79.221581 
L 926.854533 81.496432 
L 927.705276 86.29583 
L 928.555541 88.61277 
L 929.405328 90.249355 
L 930.254639 94.921553 
L 931.103474 97.285951 
L 931.951833 98.972691 
L 932.799719 103.503047 
L 933.647131 105.890751 
L 934.49407 108.281732 
L 935.340537 110.0023 
L 936.186533 114.371907 
L 937.032059 116.757872 
L 937.877116 119.138395 
L 938.721704 123.335042 
L 939.565823 125.045101 
L 940.409476 129.08886 
L 941.252662 131.421796 
L 942.095383 133.740603 
L 942.937638 137.610243 
L 943.77943 139.268158 
L 944.620758 141.535534 
L 945.461624 145.237099 
L 946.302028 147.458559 
L 947.141971 151.017095 
L 947.981453 152.59284 
L 948.820476 154.747041 
L 949.65904 158.145645 
L 950.497146 160.245591 
L 951.334795 163.513755 
L 952.171988 165.557249 
L 953.008724 167.574442 
L 953.845006 170.686705 
L 954.680833 172.092202 
L 955.516207 175.091373 
L 956.351128 176.99552 
L 957.185597 179.881554 
L 958.019614 181.725414 
L 958.853181 184.503487 
L 959.686298 186.286953 
L 960.518966 188.961913 
L 961.351185 190.685216 
L 962.182957 193.261642 
L 963.014281 194.925308 
L 963.84516 197.407557 
L 964.675593 199.01237 
L 965.505581 201.404619 
L 966.335124 202.951584 
L 967.164225 205.257855 
L 967.992883 206.748167 
L 968.821098 208.972349 
L 969.648873 210.407363 
L 970.476207 212.553229 
L 971.303101 213.934433 
L 972.129556 216.005644 
L 972.955572 217.334634 
L 973.78115 219.334752 
L 974.606292 221.292493 
L 975.430997 222.545696 
L 976.255266 224.438146 
L 977.079101 225.643587 
L 977.902501 227.473996 
L 978.725467 229.26815 
L 979.548001 230.405008 
L 980.370102 232.142306 
L 981.191772 234.234125 
L 982.01301 235.302132 
L 982.833819 236.949834 
L 983.654198 238.56777 
L 984.474148 239.57612 
L 985.293669 241.146538 
L 986.112764 243.048069 
L 986.931431 243.996461 
L 987.749672 245.491959 
L 988.567488 246.962999 
L 989.384879 247.860135 
L 990.201845 249.625927 
L 991.018388 251.030781 
L 991.834508 252.414274 
L 992.650206 253.244847 
L 993.465482 254.909053 
L 994.280338 256.233915 
L 995.094773 257.540041 
L 995.908788 259.129682 
L 996.722385 260.396001 
L 997.535563 261.136994 
L 998.348323 262.662308 
L 999.160667 263.879491 
L 999.972593 265.081162 
L 1000.784105 266.542426 
L 1001.595201 267.710376 
L 1002.405882 269.129786 
L 1003.21615 270.265742 
L 1004.026004 271.388245 
L 1004.835446 272.269413 
L 1005.644476 273.364961 
L 1006.453095 274.692224 
L 1007.261302 275.758849 
L 1008.0691 277.049322 
L 1008.876488 278.555837 
L 1009.683468 279.808283 
L 1010.490039 281.041147 
L 1011.296203 282.035474 
L 1012.101959 283.234168 
L 1012.90731 284.413925 
L 1013.712254 285.367546 
L 1014.516793 286.514011 
L 1015.320928 288.089775 
L 1016.124659 289.001754 
L 1016.927987 290.095443 
L 1017.730912 291.170907 
L 1018.533434 292.666479 
L 1019.335556 293.704495 
L 1020.137276 294.724385 
L 1020.938596 295.982963 
L 1021.739517 296.969125 
L 1022.540038 298.362945 
L 1023.340161 299.311699 
L 1024.139886 300.824169 
L 1024.939213 301.731873 
L 1025.738144 303.037685 
L 1026.536679 304.320286 
L 1027.334818 305.579704 
L 1028.132562 306.554857 
L 1028.929912 307.768059 
L 1029.726868 309.097069 
L 1030.523431 310.259741 
L 1031.319601 311.531752 
L 1032.11538 313.167024 
L 1032.910766 314.247219 
L 1033.705762 315.426064 
L 1034.500368 316.957955 
L 1035.294583 318.570015 
L 1036.08841 319.638026 
L 1036.881848 321.53724 
L 1037.674898 323.004183 
L 1038.467561 324.782971 
L 1039.259836 326.596931 
L 1040.051726 328.680288 
L 1040.843229 331.195091 
L 1041.634348 334.356205 
L 1042.425082 339.84 
L 1043.215431 339.84 
L 1044.005397 339.84 
L 1044.794981 339.84 
L 1045.584181 339.84 
L 1046.373 339.84 
L 1047.161438 339.84 
L 1047.949495 339.84 
L 1048.737172 339.84 
L 1049.524469 339.84 
L 1050.311387 339.84 
L 1051.097927 339.84 
L 1051.884088 339.84 
L 1052.669872 339.84 
L 1053.455279 339.84 
L 1054.24031 339.84 
L 1055.024965 339.84 
L 1055.809245 339.84 
L 1056.59315 339.84 
L 1057.376681 339.84 
L 1058.159838 339.84 
L 1058.942622 339.84 
L 1059.725033 339.84 
L 1060.507072 339.84 
L 1061.28874 339.84 
L 1061.28874 339.84 
L 1061.28874 339.84 
L 1060.507072 339.84 
L 1059.725033 339.84 
L 1058.942622 339.84 
L 1058.159838 339.84 
L 1057.376681 339.84 
L 1056.59315 339.84 
L 1055.809245 339.84 
L 1055.024965 339.84 
L 1054.24031 339.84 
L 1053.455279 339.84 
L 1052.669872 339.84 
L 1051.884088 339.84 
L 1051.097927 339.84 
L 1050.311387 339.84 
L 1049.524469 339.84 
L 1048.737172 339.84 
L 1047.949495 339.84 
L 1047.161438 339.84 
L 1046.373 339.84 
L 1045.584181 339.84 
L 1044.794981 339.84 
L 1044.005397 339.84 
L 1043.215431 339.84 
L 1042.425082 339.84 
L 1041.634348 339.84 
L 1040.843229 339.84 
L 1040.051726 339.84 
L 1039.259836 339.84 
L 1038.467561 339.84 
L 1037.674898 339.84 
L 1036.881848 339.84 
L 1036.08841 339.84 
L 1035.294583 339.84 
L 1034.500368 339.84 
L 1033.705762 339.84 
L 1032.910766 339.84 
L 1032.11538 339.84 
L 1031.319601 339.84 
L 1030.523431 339.84 
L 1029.726868 339.84 
L 1028.929912 339.84 
L 1028.132562 339.84 
L 1027.334818 339.84 
L 1026.536679 339.84 
L 1025.738144 339.84 
L 1024.939213 339.84 
L 1024.139886 339.84 
L 1023.340161 339.84 
L 1022.540038 339.84 
L 1021.739517 339.84 
L 1020.938596 339.84 
L 1020.137276 339.84 
L 1019.335556 339.84 
L 1018.533434 339.84 
L 1017.730912 339.84 
L 1016.927987 339.84 
L 1016.124659 339.84 
L 1015.320928 339.84 
L 1014.516793 339.84 
L 1013.712254 339.84 
L 1012.90731 339.84 
L 1012.101959 339.84 
L 1011.296203 339.84 
L 1010.490039 339.84 
L 1009.683468 339.84 
L 1008.876488 339.84 
L 1008.0691 339.84 
L 1007.261302 339.84 
L 1006.453095 339.84 
L 1005.644476 339.84 
L 1004.835446 339.84 
L 1004.026004 339.84 
L 1003.21615 339.84 
L 1002.405882 339.84 
L 1001.595201 339.84 
L 1000.784105 339.84 
L 999.972593 339.84 
L 999.160667 339.84 
L 998.348323 339.84 
L 997.535563 339.84 
L 996.722385 339.84 
L 995.908788 339.84 
L 995.094773 339.84 
L 994.280338 339.84 
L 993.465482 339.84 
L 992.650206 339.84 
L 991.834508 339.84 
L 991.018388 339.84 
L 990.201845 339.84 
L 989.384879 339.84 
L 988.567488 339.84 
L 987.749672 339.84 
L 986.931431 339.84 
L 986.112764 339.84 
L 985.293669 339.84 
L 984.474148 339.84 
L 983.654198 339.84 
L 982.833819 339.84 
L 982.01301 339.84 
L 981.191772 339.84 
L 980.370102 339.84 
L 979.548001 339.84 
L 978.725467 339.84 
L 977.902501 339.84 
L 977.079101 339.84 
L 976.255266 339.84 
L 975.430997 339.84 
L 974.606292 339.84 
L 973.78115 339.84 
L 972.955572 339.84 
L 972.129556 339.84 
L 971.303101 339.84 
L 970.476207 339.84 
L 969.648873 339.84 
L 968.821098 339.84 
L 967.992883 339.84 
L 967.164225 339.84 
L 966.335124 339.84 
L 965.505581 339.84 
L 964.675593 339.84 
L 963.84516 339.84 
L 963.014281 339.84 
L 962.182957 339.84 
L 961.351185 339.84 
L 960.518966 339.84 
L 959.686298 339.84 
L 958.853181 339.84 
L 958.019614 339.84 
L 957.185597 339.84 
L 956.351128 339.84 
L 955.516207 339.84 
L 954.680833 339.84 
L 953.845006 339.84 
L 953.008724 339.84 
L 952.171988 339.84 
L 951.334795 339.84 
L 950.497146 339.84 
L 949.65904 339.84 
L 948.820476 339.84 
L 947.981453 339.84 
L 947.141971 339.84 
L 946.302028 339.84 
L 945.461624 339.84 
L 944.620758 339.84 
L 943.77943 339.84 
L 942.937638 339.84 
L 942.095383 339.84 
L 941.252662 339.84 
L 940.409476 339.84 
L 939.565823 339.84 
L 938.721704 339.84 
L 937.877116 339.84 
L 937.032059 339.84 
L 936.186533 339.84 
L 935.340537 339.84 
L 934.49407 339.84 
L 933.647131 339.84 
L 932.799719 339.84 
L 931.951833 339.84 
L 931.103474 339.84 
L 930.254639 339.84 
L 929.405328 339.84 
L 928.555541 339.84 
L 927.705276 339.84 
L 926.854533 339.84 
L 926.003311 339.84 
L 925.15161 339.84 
L 924.299427 339.84 
L 923.446763 339.84 
L 922.593617 339.84 
L 921.739987 339.84 
L 920.885874 339.84 
L 920.031275 339.84 
L 919.176191 339.84 
L 918.320621 339.84 
L 917.464563 339.84 
L 916.608018 339.84 
L 915.750983 339.84 
L 914.893458 339.84 
L 914.035443 339.84 
L 913.176937 339.84 
L 912.317938 339.84 
L 911.458446 339.84 
L 910.59846 339.84 
L 909.737979 339.84 
L 908.877002 339.84 
L 908.015529 339.84 
L 907.153558 339.84 
L 906.291089 339.84 
L 905.428121 339.84 
L 904.564653 339.84 
L 903.700684 339.84 
L 902.836213 339.84 
L 901.97124 339.84 
L 901.105763 339.84 
L 900.239781 339.84 
L 899.373295 339.84 
L 898.506302 339.84 
L 897.638802 339.84 
L 896.770794 339.84 
L 895.902277 339.84 
L 895.033251 339.84 
L 894.163714 339.84 
L 893.293665 339.84 
L 892.423104 339.84 
L 891.552029 339.84 
L 890.68044 339.84 
L 889.808337 339.84 
L 888.935716 339.84 
L 888.062579 339.84 
L 887.188924 339.84 
L 886.314751 339.84 
L 885.440057 339.84 
L 884.564843 339.84 
L 883.689107 339.84 
L 882.812848 339.84 
L 881.936066 339.84 
L 881.05876 339.84 
L 880.180928 339.84 
L 879.30257 339.84 
L 878.423684 339.84 
L 877.544271 339.84 
L 876.664328 339.84 
L 875.783855 339.84 
L 874.902851 339.84 
L 874.021314 339.84 
L 873.139245 339.84 
L 872.256642 339.84 
L 871.373504 339.84 
L 870.48983 339.84 
L 869.605618 339.84 
L 868.72087 339.84 
L 867.835582 339.84 
L 866.949754 339.84 
L 866.063385 339.84 
L 865.176475 339.84 
L 864.289022 339.84 
L 863.401025 339.84 
L 862.512483 339.84 
L 861.623395 339.84 
L 860.73376 339.84 
L 859.843578 339.84 
L 858.952846 339.84 
L 858.061565 339.84 
L 857.169733 339.84 
L 856.277349 339.84 
L 855.384412 339.84 
L 854.490921 339.84 
L 853.596875 339.84 
L 852.702272 339.84 
L 851.807113 339.84 
L 850.911396 339.84 
L 850.015119 339.84 
L 849.118282 339.84 
L 848.220884 339.84 
L 847.322924 339.84 
L 846.4244 339.84 
L 845.525312 339.84 
L 844.625658 339.84 
L 843.725437 339.84 
L 842.824649 339.84 
L 841.923292 339.84 
L 841.021366 339.84 
L 840.118868 339.84 
L 839.215798 339.84 
L 838.312156 339.84 
L 837.407939 339.84 
L 836.503147 339.84 
L 835.597778 339.84 
L 834.691833 339.84 
L 833.785308 339.84 
L 832.878204 339.84 
L 831.970519 339.84 
L 831.062252 339.84 
L 830.153402 339.84 
L 829.243968 339.84 
L 828.333949 339.84 
L 827.423343 339.84 
L 826.512149 339.84 
L 825.600367 339.84 
L 824.687996 339.84 
L 823.775033 339.84 
L 822.861478 339.84 
L 821.947329 339.84 
L 821.032587 339.84 
L 820.117248 339.84 
L 819.201313 339.84 
L 818.28478 339.84 
L 817.367648 339.84 
L 816.449916 339.84 
L 815.531582 339.84 
L 814.612645 339.84 
L 813.693105 339.84 
L 812.772959 339.84 
L 811.852208 339.84 
L 810.930849 339.84 
L 810.008881 339.84 
L 809.086303 339.84 
L 808.163115 339.84 
L 807.239314 339.84 
L 806.3149 339.84 
L 805.389871 339.84 
L 804.464226 339.84 
L 803.537963 339.84 
L 802.611083 339.84 
L 801.683583 339.84 
L 800.755462 339.84 
L 799.826718 339.84 
L 798.897352 339.84 
L 797.96736 339.84 
L 797.036743 339.84 
L 796.105499 339.84 
L 795.173626 339.84 
L 794.241124 339.84 
L 793.30799 339.84 
L 792.374224 339.84 
L 791.439825 339.84 
L 790.504791 339.84 
L 789.56912 339.84 
L 788.632812 339.84 
L 787.695866 339.84 
L 786.758279 339.84 
L 785.820051 339.84 
L 784.88118 339.84 
L 783.941665 339.84 
L 783.001505 339.84 
L 782.060699 339.84 
L 781.119244 339.84 
L 780.17714 339.84 
L 779.234385 339.84 
L 778.290978 339.84 
L 777.346917 339.84 
L 776.402202 339.84 
L 775.456831 339.84 
L 774.510802 339.84 
L 773.564115 339.84 
L 772.616767 339.84 
L 771.668757 339.84 
L 770.720085 339.84 
L 769.770748 339.84 
L 768.820745 339.84 
L 767.870075 339.84 
L 766.918736 339.84 
L 765.966728 339.84 
L 765.014047 339.84 
L 764.060694 339.84 
L 763.106667 339.84 
L 762.151964 339.84 
L 761.196584 339.84 
L 760.240525 339.84 
L 759.283786 339.84 
L 758.326366 339.84 
L 757.368262 339.84 
L 756.409474 339.84 
L 755.450001 339.84 
L 754.489839 339.84 
L 753.528989 339.84 
L 752.567449 339.84 
L 751.605217 339.84 
L 750.642291 339.84 
L 749.678671 339.84 
L 748.714354 339.84 
L 747.749339 339.84 
L 746.783625 339.84 
L 745.81721 339.84 
L 744.850093 339.84 
L 743.882272 339.84 
L 742.913745 339.84 
L 741.944511 339.84 
L 740.974568 339.84 
L 740.003916 339.84 
L 739.032552 339.84 
L 738.060474 339.84 
L 737.087682 339.84 
L 736.114173 339.84 
L 735.139946 339.84 
L 734.164999 339.84 
L 733.189331 339.84 
L 732.212941 339.84 
L 731.235826 339.84 
L 730.257985 339.84 
L 729.279416 339.84 
L 728.300118 339.84 
L 727.32009 339.84 
L 726.339328 339.84 
L 725.357833 339.84 
L 724.375601 339.84 
L 723.392632 339.84 
L 722.408924 339.84 
L 721.424475 339.84 
L 720.439284 339.84 
L 719.453348 339.84 
L 718.466666 339.84 
L 717.479237 339.84 
L 716.491059 339.84 
L 715.502129 339.84 
L 714.512447 339.84 
L 713.52201 339.84 
L 712.530818 339.84 
L 711.538867 339.84 
L 710.546157 339.84 
L 709.552685 339.84 
L 708.55845 339.84 
L 707.56345 339.84 
L 706.567684 339.84 
L 705.571149 339.84 
L 704.573844 339.84 
L 703.575767 339.84 
L 702.576916 339.84 
L 701.57729 339.84 
L 700.576886 339.84 
L 699.575703 339.84 
L 698.573738 339.84 
L 697.570991 339.84 
L 696.567459 339.84 
L 695.563141 339.84 
L 694.558034 339.84 
L 693.552137 339.84 
L 692.545448 339.84 
L 691.537964 339.84 
L 690.529685 339.84 
L 689.520608 339.84 
L 688.510731 339.84 
L 687.500053 339.84 
L 686.488571 339.84 
L 685.476284 339.84 
L 684.463189 339.84 
L 683.449285 339.84 
L 682.43457 339.84 
L 681.419042 339.84 
L 680.402698 339.84 
L 679.385538 339.84 
L 678.367558 339.84 
L 677.348757 339.84 
L 676.329133 339.84 
L 675.308684 339.84 
L 674.287409 339.84 
L 673.265303 339.84 
L 672.242367 339.84 
L 671.218598 339.84 
L 670.193994 339.84 
L 669.168552 339.84 
L 668.142271 339.84 
L 667.115149 339.84 
L 666.087183 339.84 
L 665.058372 339.84 
L 664.028713 339.84 
L 662.998205 339.84 
L 661.966845 339.84 
L 660.934631 339.84 
L 659.90156 339.84 
L 658.867632 339.84 
L 657.832844 339.84 
L 656.797193 339.84 
L 655.760677 339.84 
L 654.723295 339.84 
L 653.685043 339.84 
L 652.645921 339.84 
L 651.605925 339.84 
L 650.565053 339.84 
L 649.523304 339.84 
L 648.480675 339.84 
L 647.437164 339.84 
L 646.392768 339.84 
L 645.347485 339.84 
L 644.301314 339.84 
L 643.254251 339.84 
L 642.206294 339.84 
L 641.157442 339.84 
L 640.107692 339.84 
L 639.057041 339.84 
L 638.005488 339.84 
L 636.953029 339.84 
L 635.899663 339.84 
L 634.845387 339.84 
L 633.7902 339.84 
L 632.734097 339.84 
L 631.677078 339.84 
L 630.619139 339.84 
L 629.560279 339.84 
L 628.500494 339.84 
L 627.439783 339.84 
L 626.378144 339.84 
L 625.315572 339.84 
L 624.252067 339.84 
L 623.187626 339.84 
L 622.122245 339.84 
L 621.055924 339.84 
L 619.988658 339.84 
L 618.920446 339.84 
L 617.851286 339.84 
L 616.781174 339.84 
L 615.710108 339.84 
L 614.638086 339.84 
L 613.565105 339.84 
L 612.491162 339.84 
L 611.416255 339.84 
L 610.340381 339.84 
L 609.263537 339.84 
z
" clip-path="url(#p018eba5af2)" style="fill: #1f77b4; fill-opacity: 0.5"/>
   </g>
   <g id="matplotlib.axis_3">
    <g id="xtick_7">
     <g id="line2d_21">
      <g>
       <use xlink:href="#m46e354cc83" x="609.263537" y="339.84" style="stroke: #000000; stroke-width: 0.8"/>
      </g>
     </g>
     <g id="text_17">
      <!-- 1.4 -->
      <g transform="translate(596.541037 358.9975) scale(0.16 -0.16)">
       <use xlink:href="#DejaVuSans-31"/>
       <use xlink:href="#DejaVuSans-2e" x="63.623047"/>
       <use xlink:href="#DejaVuSans-34" x="95.410156"/>
      </g>
     </g>
    </g>
    <g id="xtick_8">
     <g id="line2d_22">
      <g>
       <use xlink:href="#m46e354cc83" x="694.551311" y="339.84" style="stroke: #000000; stroke-width: 0.8"/>
      </g>
     </g>
     <g id="text_18">
      <!-- 1.5 -->
      <g transform="translate(681.828811 358.9975) scale(0.16 -0.16)">
       <defs>
        <path id="DejaVuSans-35" d="M 691 4666 
L 3169 4666 
L 3169 4134 
L 1269 4134 
L 1269 2991 
Q 1406 3038 1543 3061 
Q 1681 3084 1819 3084 
Q 2600 3084 3056 2656 
Q 3513 2228 3513 1497 
Q 3513 744 3044 326 
Q 2575 -91 1722 -91 
Q 1428 -91 1123 -41 
Q 819 9 494 109 
L 494 744 
Q 775 591 1075 516 
Q 1375 441 1709 441 
Q 2250 441 2565 725 
Q 2881 1009 2881 1497 
Q 2881 1984 2565 2268 
Q 2250 2553 1709 2553 
Q 1456 2553 1204 2497 
Q 953 2441 691 2322 
L 691 4666 
z
" transform="scale(0.015625)"/>
       </defs>
       <use xlink:href="#DejaVuSans-31"/>
       <use xlink:href="#DejaVuSans-2e" x="63.623047"/>
       <use xlink:href="#DejaVuSans-35" x="95.410156"/>
      </g>
     </g>
    </g>
    <g id="xtick_9">
     <g id="line2d_23">
      <g>
       <use xlink:href="#m46e354cc83" x="779.839085" y="339.84" style="stroke: #000000; stroke-width: 0.8"/>
      </g>
     </g>
     <g id="text_19">
      <!-- 1.6 -->
      <g transform="translate(767.116585 358.9975) scale(0.16 -0.16)">
       <defs>
        <path id="DejaVuSans-36" d="M 2113 2584 
Q 1688 2584 1439 2293 
Q 1191 2003 1191 1497 
Q 1191 994 1439 701 
Q 1688 409 2113 409 
Q 2538 409 2786 701 
Q 3034 994 3034 1497 
Q 3034 2003 2786 2293 
Q 2538 2584 2113 2584 
z
M 3366 4563 
L 3366 3988 
Q 3128 4100 2886 4159 
Q 2644 4219 2406 4219 
Q 1781 4219 1451 3797 
Q 1122 3375 1075 2522 
Q 1259 2794 1537 2939 
Q 1816 3084 2150 3084 
Q 2853 3084 3261 2657 
Q 3669 2231 3669 1497 
Q 3669 778 3244 343 
Q 2819 -91 2113 -91 
Q 1303 -91 875 529 
Q 447 1150 447 2328 
Q 447 3434 972 4092 
Q 1497 4750 2381 4750 
Q 2619 4750 2861 4703 
Q 3103 4656 3366 4563 
z
" transform="scale(0.015625)"/>
       </defs>
       <use xlink:href="#DejaVuSans-31"/>
       <use xlink:href="#DejaVuSans-2e" x="63.623047"/>
       <use xlink:href="#DejaVuSans-36" x="95.410156"/>
      </g>
     </g>
    </g>
    <g id="xtick_10">
     <g id="line2d_24">
      <g>
       <use xlink:href="#m46e354cc83" x="865.12686" y="339.84" style="stroke: #000000; stroke-width: 0.8"/>
      </g>
     </g>
     <g id="text_20">
      <!-- 1.7 -->
      <g transform="translate(852.40436 358.9975) scale(0.16 -0.16)">
       <use xlink:href="#DejaVuSans-31"/>
       <use xlink:href="#DejaVuSans-2e" x="63.623047"/>
       <use xlink:href="#DejaVuSans-37" x="95.410156"/>
      </g>
     </g>
    </g>
    <g id="xtick_11">
     <g id="line2d_25">
      <g>
       <use xlink:href="#m46e354cc83" x="950.414634" y="339.84" style="stroke: #000000; stroke-width: 0.8"/>
      </g>
     </g>
     <g id="text_21">
      <!-- 1.8 -->
      <g transform="translate(937.692134 358.9975) scale(0.16 -0.16)">
       <use xlink:href="#DejaVuSans-31"/>
       <use xlink:href="#DejaVuSans-2e" x="63.623047"/>
       <use xlink:href="#DejaVuSans-38" x="95.410156"/>
      </g>
     </g>
    </g>
    <g id="xtick_12">
     <g id="line2d_26">
      <g>
       <use xlink:href="#m46e354cc83" x="1035.702408" y="339.84" style="stroke: #000000; stroke-width: 0.8"/>
      </g>
     </g>
     <g id="text_22">
      <!-- 1.9 -->
      <g transform="translate(1022.979908 358.9975) scale(0.16 -0.16)">
       <use xlink:href="#DejaVuSans-31"/>
       <use xlink:href="#DejaVuSans-2e" x="63.623047"/>
       <use xlink:href="#DejaVuSans-39" x="95.410156"/>
      </g>
     </g>
    </g>
    <g id="text_23">
     <!-- $M\left(K^0\bar{p}\right)$ -->
     <g transform="translate(806.876139 380.885) scale(0.16 -0.16)">
      <defs>
       <path id="STIXSizeOneSym-Regular-28" d="M 2445 -858 
L 2445 -1050 
Q 1728 -371 1309 630 
Q 890 1632 890 2886 
Q 890 4122 1309 5136 
Q 1728 6150 2445 6822 
L 2445 6630 
Q 1408 5363 1408 2886 
Q 1408 410 2445 -858 
z
" transform="scale(0.015625)"/>
       <path id="DejaVuSans-304" d="M -2518 4769 
L -650 4769 
L -650 4306 
L -2518 4306 
L -2518 4769 
z
" transform="scale(0.015625)"/>
       <path id="DejaVuSans-Oblique-70" d="M 3175 2156 
Q 3175 2616 2975 2859 
Q 2775 3103 2400 3103 
Q 2144 3103 1911 2972 
Q 1678 2841 1497 2591 
Q 1319 2344 1212 1994 
Q 1106 1644 1106 1300 
Q 1106 863 1306 627 
Q 1506 391 1875 391 
Q 2147 391 2380 519 
Q 2613 647 2778 891 
Q 2956 1147 3065 1494 
Q 3175 1841 3175 2156 
z
M 1394 2969 
Q 1625 3272 1939 3428 
Q 2253 3584 2638 3584 
Q 3175 3584 3472 3232 
Q 3769 2881 3769 2247 
Q 3769 1728 3584 1258 
Q 3400 788 3053 416 
Q 2822 169 2531 39 
Q 2241 -91 1919 -91 
Q 1547 -91 1294 64 
Q 1041 219 916 525 
L 556 -1331 
L -19 -1331 
L 922 3500 
L 1497 3500 
L 1394 2969 
z
" transform="scale(0.015625)"/>
       <path id="STIXSizeOneSym-Regular-29" d="M 550 6630 
L 550 6822 
Q 1267 6144 1686 5142 
Q 2106 4141 2106 2886 
Q 2106 1651 1686 636 
Q 1267 -378 550 -1050 
L 550 -858 
Q 1587 410 1587 2886 
Q 1587 5363 550 6630 
z
" transform="scale(0.015625)"/>
      </defs>
      <use xlink:href="#DejaVuSans-Oblique-4d" transform="translate(0 0.765625)"/>
      <use xlink:href="#STIXSizeOneSym-Regular-28" transform="translate(86.279297 -5.265625) scale(0.902693)"/>
      <use xlink:href="#DejaVuSans-Oblique-4b" transform="translate(128.516281 0.765625)"/>
      <use xlink:href="#DejaVuSans-30" transform="translate(201.109224 39.046875) scale(0.7)"/>
      <use xlink:href="#DejaVuSans-304" transform="translate(312.592622 1.984375)"/>
      <use xlink:href="#DejaVuSans-Oblique-70" transform="translate(248.379732 0.765625)"/>
      <use xlink:href="#STIXSizeOneSym-Regular-29" transform="translate(311.856294 -5.265625) scale(0.902693)"/>
     </g>
    </g>
   </g>
   <g id="matplotlib.axis_4">
    <g id="ytick_6">
     <g id="line2d_27">
      <g>
       <use xlink:href="#me9aa0bf82b" x="586.662277" y="339.84" style="stroke: #000000; stroke-width: 0.8"/>
      </g>
     </g>
    </g>
    <g id="ytick_7">
     <g id="line2d_28">
      <g>
       <use xlink:href="#me9aa0bf82b" x="586.662277" y="268.061004" style="stroke: #000000; stroke-width: 0.8"/>
      </g>
     </g>
    </g>
    <g id="ytick_8">
     <g id="line2d_29">
      <g>
       <use xlink:href="#me9aa0bf82b" x="586.662277" y="196.282008" style="stroke: #000000; stroke-width: 0.8"/>
      </g>
     </g>
    </g>
    <g id="ytick_9">
     <g id="line2d_30">
      <g>
       <use xlink:href="#me9aa0bf82b" x="586.662277" y="124.503011" style="stroke: #000000; stroke-width: 0.8"/>
      </g>
     </g>
    </g>
    <g id="ytick_10">
     <g id="line2d_31">
      <g>
       <use xlink:href="#me9aa0bf82b" x="586.662277" y="52.724015" style="stroke: #000000; stroke-width: 0.8"/>
      </g>
     </g>
    </g>
   </g>
   <g id="line2d_32">
    <path d="M 609.263537 339.84 
L 639.057041 339.84 
L 640.107692 339.221888 
L 641.157442 338.382905 
L 643.254251 337.476006 
L 646.392768 336.468927 
L 649.523304 335.624352 
L 654.723295 334.344702 
L 660.934631 332.975713 
L 664.028713 332.274948 
L 674.287409 329.809059 
L 676.329133 329.33525 
L 684.463189 327.191596 
L 687.500053 326.351637 
L 690.529685 325.458239 
L 693.552137 324.50776 
L 697.570991 323.277601 
L 699.575703 322.522101 
L 705.571149 320.387354 
L 710.546157 318.400291 
L 718.466666 314.977733 
L 727.32009 310.498946 
L 728.300118 309.920308 
L 729.279416 309.486625 
L 733.189331 307.194631 
L 736.114173 305.415802 
L 739.032552 303.642273 
L 740.003916 302.943128 
L 740.974568 302.417911 
L 741.944511 301.699722 
L 742.913745 301.160937 
L 744.850093 299.774842 
L 751.605217 295.142257 
L 752.567449 294.333668 
L 754.489839 293.029076 
L 762.151964 287.391283 
L 763.106667 286.795737 
L 764.060694 285.953357 
L 765.966728 284.656275 
L 767.870075 283.383855 
L 768.820745 282.692873 
L 769.770748 282.143424 
L 770.720085 281.334912 
L 774.510802 279.163157 
L 775.456831 278.409858 
L 780.17714 276.169936 
L 781.119244 275.518383 
L 787.695866 273.216501 
L 788.632812 273.054785 
L 789.56912 272.769268 
L 793.30799 272.362151 
L 797.036743 272.413594 
L 800.755462 272.91895 
L 805.389871 274.189588 
L 810.008881 276.052745 
L 815.531582 278.948055 
L 820.117248 281.853265 
L 825.600367 285.609274 
L 835.597778 292.70595 
L 837.407939 294.075655 
L 847.322924 300.848399 
L 855.384412 305.792269 
L 865.176475 311.095263 
L 875.783855 315.94883 
L 887.188924 320.176293 
L 901.97124 324.505616 
L 920.031275 328.39265 
L 923.446763 328.980026 
L 926.003311 329.415532 
L 934.49407 330.743892 
L 937.877116 331.207998 
L 942.095383 331.769726 
L 947.141971 332.403872 
L 951.334795 332.875496 
L 969.648873 334.649424 
L 977.902501 335.312995 
L 988.567488 336.088868 
L 997.535563 336.665348 
L 1004.835446 337.111185 
L 1027.334818 338.404935 
L 1037.674898 339.114317 
L 1040.843229 339.461744 
L 1043.215431 339.84 
L 1061.28874 339.84 
L 1061.28874 339.84 
" clip-path="url(#p018eba5af2)" style="fill: none; stroke: #ff7f0e; stroke-width: 1.5; stroke-linecap: square"/>
   </g>
   <g id="line2d_33">
    <path d="M 831.01175 339.84 
L 831.01175 7.2 
" clip-path="url(#p018eba5af2)" style="fill: none; stroke-dasharray: 5.55,2.4; stroke-dashoffset: 0; stroke: #ff7f0e; stroke-width: 1.5"/>
   </g>
   <g id="line2d_34">
    <path d="M 609.263537 339.84 
L 672.242367 339.729027 
L 736.114173 339.430307 
L 762.151964 339.101893 
L 776.402202 338.759967 
L 787.695866 338.317952 
L 796.105499 337.822859 
L 803.537963 337.20385 
L 810.008881 336.48504 
L 817.367648 335.450165 
L 827.423343 334.008211 
L 831.062252 333.682617 
L 834.691833 333.570699 
L 838.312156 333.716537 
L 841.923292 334.073717 
L 847.322924 334.848823 
L 860.73376 336.843556 
L 868.72087 337.670576 
L 875.783855 338.198223 
L 887.188924 338.748784 
L 902.836213 339.174057 
L 921.739987 339.443836 
L 953.008724 339.650939 
L 1003.21615 339.779484 
L 1061.28874 339.84 
L 1061.28874 339.84 
" clip-path="url(#p018eba5af2)" style="fill: none; stroke: #2ca02c; stroke-width: 1.5; stroke-linecap: square"/>
   </g>
   <g id="line2d_35">
    <path d="M 843.804916 339.84 
L 843.804916 7.2 
" clip-path="url(#p018eba5af2)" style="fill: none; stroke-dasharray: 5.55,2.4; stroke-dashoffset: 0; stroke: #2ca02c; stroke-width: 1.5"/>
   </g>
   <g id="line2d_36">
    <path d="M 609.263537 339.84 
L 639.057041 339.84 
L 640.107692 339.171645 
L 641.157442 338.269967 
L 643.254251 337.31077 
L 645.347485 336.584693 
L 649.523304 335.427907 
L 654.723295 334.198087 
L 660.934631 332.96048 
L 662.998205 332.536101 
L 671.218598 330.95972 
L 684.463189 328.405426 
L 688.510731 327.650274 
L 690.529685 327.217205 
L 695.563141 326.204672 
L 699.575703 325.325706 
L 708.55845 323.365325 
L 722.408924 320.033857 
L 728.300118 318.380534 
L 729.279416 318.183144 
L 733.189331 317.021447 
L 738.060474 315.55967 
L 742.913745 314.049081 
L 745.81721 313.022319 
L 753.528989 310.300881 
L 761.196584 307.227245 
L 769.770748 303.437284 
L 770.720085 302.86848 
L 773.564115 301.54408 
L 774.510802 301.118511 
L 775.456831 300.506042 
L 778.290978 299.070506 
L 780.17714 298.138881 
L 781.119244 297.46924 
L 783.941665 295.888048 
L 785.820051 294.859394 
L 790.504791 291.818342 
L 792.374224 290.663418 
L 794.241124 289.357994 
L 796.105499 288.008942 
L 798.897352 286.081315 
L 800.755462 284.620718 
L 802.611083 283.237855 
L 804.464226 281.680391 
L 807.239314 279.447799 
L 809.086303 277.760859 
L 811.852208 275.339239 
L 813.693105 273.512358 
L 818.28478 269.06721 
L 822.861478 264.264342 
L 823.775033 263.258974 
L 824.687996 262.065473 
L 825.600367 261.20219 
L 830.153402 255.785266 
L 834.691833 249.964746 
L 835.597778 248.751419 
L 836.503147 247.727222 
L 842.824649 238.905839 
L 843.725437 237.323224 
L 844.625658 236.182664 
L 855.384412 219.459493 
L 856.277349 217.930335 
L 857.169733 216.670161 
L 858.952846 213.576831 
L 859.843578 212.308539 
L 861.623395 209.186457 
L 862.512483 207.918919 
L 863.401025 206.353525 
L 864.289022 205.093304 
L 866.063385 201.969327 
L 866.949754 200.727815 
L 868.72087 197.632374 
L 869.605618 196.422236 
L 870.48983 194.897006 
L 871.373504 194.051016 
L 873.139245 191.073438 
L 874.021314 189.951772 
L 874.902851 188.506307 
L 875.783855 187.431279 
L 876.664328 186.029466 
L 877.544271 185.00826 
L 879.30257 182.333755 
L 880.180928 181.405548 
L 881.05876 180.144361 
L 888.062579 173.348899 
L 888.935716 172.854852 
L 889.808337 172.019924 
L 890.68044 172.027214 
L 891.552029 171.298562 
L 892.423104 171.022406 
L 893.293665 170.403383 
L 894.163714 170.242153 
L 895.033251 169.737295 
L 896.770794 169.712609 
L 897.638802 169.791815 
L 898.506302 169.525979 
L 899.373295 169.727707 
L 900.239781 169.583852 
L 901.105763 169.908713 
L 901.97124 170.702626 
L 902.836213 170.742517 
L 903.700684 171.250544 
L 904.564653 171.41166 
L 906.291089 172.725282 
L 908.015529 174.268197 
L 908.877002 174.719985 
L 911.458446 177.60335 
L 912.317938 178.664813 
L 913.176937 179.378432 
L 914.035443 180.534756 
L 914.893458 182.126302 
L 915.750983 182.97712 
L 918.320621 186.935746 
L 920.031275 189.748033 
L 920.885874 190.82556 
L 921.739987 192.679671 
L 922.593617 194.185077 
L 923.446763 195.348333 
L 924.299427 197.26481 
L 925.15161 198.83509 
L 926.003311 200.06643 
L 926.854533 201.67321 
L 927.705276 203.643929 
L 928.555541 205.273182 
L 929.405328 206.569038 
L 930.254639 208.560171 
L 931.103474 210.21442 
L 931.951833 211.54036 
L 932.799719 213.536126 
L 934.49407 216.865051 
L 935.340537 218.20931 
L 936.186533 220.189576 
L 937.877116 223.49908 
L 938.721704 225.450194 
L 939.565823 226.783946 
L 940.409476 228.712339 
L 942.095383 231.937314 
L 942.937638 233.820909 
L 943.77943 235.117976 
L 944.620758 236.68971 
L 945.461624 238.52492 
L 946.302028 240.065865 
L 947.141971 241.862168 
L 947.981453 243.103557 
L 948.820476 244.599275 
L 949.65904 246.338691 
L 950.497146 247.798609 
L 951.334795 249.494836 
L 960.518966 265.03852 
L 963.014281 268.831488 
L 963.84516 270.194011 
L 966.335124 273.743282 
L 967.164225 275.018447 
L 969.648873 278.331702 
L 970.476207 279.522852 
L 972.955572 282.609883 
L 974.606292 284.811435 
L 977.079101 287.628101 
L 978.725467 289.640687 
L 980.370102 291.419526 
L 981.191772 292.519738 
L 982.833819 294.196864 
L 983.654198 295.087777 
L 985.293669 296.672311 
L 986.112764 297.660196 
L 987.749672 299.153273 
L 991.834508 302.982809 
L 992.650206 303.574542 
L 994.280338 305.109715 
L 1000.784105 310.448574 
L 1010.490039 317.358991 
L 1012.101959 318.362564 
L 1015.320928 320.445241 
L 1016.927987 321.335804 
L 1028.132562 327.890586 
L 1031.319601 329.740291 
L 1032.11538 330.292598 
L 1033.705762 331.146012 
L 1037.674898 333.869964 
L 1039.259836 335.145665 
L 1040.051726 335.866013 
L 1040.843229 336.772397 
L 1041.634348 337.9252 
L 1042.425082 339.84 
L 1061.28874 339.84 
L 1061.28874 339.84 
" clip-path="url(#p018eba5af2)" style="fill: none; stroke: #d62728; stroke-width: 1.5; stroke-linecap: square"/>
   </g>
   <g id="line2d_37">
    <path d="M 907.770747 339.84 
L 907.770747 7.2 
" clip-path="url(#p018eba5af2)" style="fill: none; stroke-dasharray: 5.55,2.4; stroke-dashoffset: 0; stroke: #d62728; stroke-width: 1.5"/>
   </g>
   <g id="line2d_38">
    <path d="M 609.263537 339.84 
L 698.573738 339.729673 
L 785.820051 339.492255 
L 831.970519 339.114252 
L 856.277349 338.675018 
L 869.605618 338.300382 
L 904.564653 337.127459 
L 914.035443 337.136777 
L 937.877116 338.051745 
L 947.141971 338.459934 
L 982.833819 339.358709 
L 1007.261302 339.609331 
L 1047.161438 339.84 
L 1061.28874 339.84 
L 1061.28874 339.84 
" clip-path="url(#p018eba5af2)" style="fill: none; stroke: #9467bd; stroke-width: 1.5; stroke-linecap: square"/>
   </g>
   <g id="line2d_39">
    <path d="M 929.09269 339.84 
L 929.09269 7.2 
" clip-path="url(#p018eba5af2)" style="fill: none; stroke-dasharray: 5.55,2.4; stroke-dashoffset: 0; stroke: #9467bd; stroke-width: 1.5"/>
   </g>
   <g id="line2d_40">
    <path d="M 609.263537 339.84 
L 640.107692 339.748668 
L 642.206294 339.556604 
L 649.523304 339.250351 
L 662.998205 338.894795 
L 757.368262 336.913566 
L 768.820745 336.612554 
L 782.060699 336.245357 
L 797.96736 335.758109 
L 814.612645 335.158618 
L 834.691833 334.307739 
L 859.843578 332.976715 
L 890.68044 330.748723 
L 896.770794 330.183535 
L 903.700684 329.520183 
L 907.153558 329.163399 
L 914.893458 328.342273 
L 918.320621 327.927363 
L 928.555541 326.697655 
L 930.254639 326.478118 
L 947.981453 324.05605 
L 950.497146 323.728265 
L 952.171988 323.529602 
L 956.351128 322.941504 
L 958.853181 322.682659 
L 961.351185 322.364149 
L 963.84516 322.122624 
L 966.335124 321.821735 
L 968.821098 321.606498 
L 971.303101 321.332743 
L 974.606292 321.125586 
L 977.079101 320.897902 
L 985.293669 320.725574 
L 986.112764 320.833565 
L 987.749672 320.801047 
L 993.465482 321.131368 
L 995.908788 321.432736 
L 999.972593 321.872813 
L 1002.405882 322.375913 
L 1005.644476 322.854347 
L 1010.490039 324.146186 
L 1012.101959 324.536925 
L 1021.739517 327.544403 
L 1025.738144 329.129808 
L 1031.319601 331.485024 
L 1032.11538 331.940112 
L 1033.705762 332.578649 
L 1037.674898 334.821709 
L 1039.259836 335.886315 
L 1040.051726 336.484831 
L 1040.843229 337.255949 
L 1041.634348 338.21603 
L 1042.425082 339.84 
L 1061.28874 339.84 
L 1061.28874 339.84 
" clip-path="url(#p018eba5af2)" style="fill: none; stroke: #8c564b; stroke-width: 1.5; stroke-linecap: square"/>
   </g>
   <g id="line2d_41">
    <path d="M 1044.231185 339.84 
L 1044.231185 7.2 
" clip-path="url(#p018eba5af2)" style="fill: none; stroke-dasharray: 5.55,2.4; stroke-dashoffset: 0; stroke: #8c564b; stroke-width: 1.5"/>
   </g>
   <g id="patch_9">
    <path d="M 586.662277 339.84 
L 586.662277 7.2 
" style="fill: none; stroke: #000000; stroke-width: 0.8; stroke-linejoin: miter; stroke-linecap: square"/>
   </g>
   <g id="patch_10">
    <path d="M 1083.89 339.84 
L 1083.89 7.2 
" style="fill: none; stroke: #000000; stroke-width: 0.8; stroke-linejoin: miter; stroke-linecap: square"/>
   </g>
   <g id="patch_11">
    <path d="M 586.662277 339.84 
L 1083.89 339.84 
" style="fill: none; stroke: #000000; stroke-width: 0.8; stroke-linejoin: miter; stroke-linecap: square"/>
   </g>
   <g id="patch_12">
    <path d="M 586.662277 7.2 
L 1083.89 7.2 
" style="fill: none; stroke: #000000; stroke-width: 0.8; stroke-linejoin: miter; stroke-linecap: square"/>
   </g>
   <g id="legend_2">
    <g id="patch_13">
     <path d="M 595.062277 114 
L 688.542277 114 
Q 690.942277 114 690.942277 111.6 
L 690.942277 15.6 
Q 690.942277 13.2 688.542277 13.2 
L 595.062277 13.2 
Q 592.662277 13.2 592.662277 15.6 
L 592.662277 111.6 
Q 592.662277 114 595.062277 114 
z
" style="fill: #ffffff; opacity: 0.8; stroke: #cccccc; stroke-linejoin: miter"/>
    </g>
    <g id="line2d_42">
     <path d="M 597.462277 24.744375 
L 609.462277 24.744375 
L 621.462277 24.744375 
" style="fill: none; stroke-dasharray: 5.55,2.4; stroke-dashoffset: 0; stroke: #ff7f0e; stroke-width: 1.5"/>
    </g>
    <g id="text_24">
     <!-- $\overline{\Sigma}(1660)^{-}$ -->
     <g transform="translate(631.062277 28.944375) scale(0.12 -0.12)">
      <defs>
       <path id="DejaVuSans-2212" d="M 678 2272 
L 4684 2272 
L 4684 1741 
L 678 1741 
L 678 2272 
z
" transform="scale(0.015625)"/>
      </defs>
      <use xlink:href="#DejaVuSans-3a3" transform="translate(0 0.84375)"/>
      <use xlink:href="#DejaVuSans-28" transform="translate(63.183594 0.34375)"/>
      <use xlink:href="#DejaVuSans-31" transform="translate(102.197266 0.34375)"/>
      <use xlink:href="#DejaVuSans-36" transform="translate(165.820312 0.34375)"/>
      <use xlink:href="#DejaVuSans-36" transform="translate(229.443359 0.34375)"/>
      <use xlink:href="#DejaVuSans-30" transform="translate(293.066406 0.34375)"/>
      <use xlink:href="#DejaVuSans-29" transform="translate(356.689453 0.34375)"/>
      <use xlink:href="#DejaVuSans-2212" transform="translate(396.660156 38.625) scale(0.7)"/>
      <path d="M 0 85.5 
L 0 91.75 
L 63.183594 91.75 
L 63.183594 85.5 
L 0 85.5 
z
"/>
     </g>
    </g>
    <g id="line2d_43">
     <path d="M 597.462277 44.184375 
L 609.462277 44.184375 
L 621.462277 44.184375 
" style="fill: none; stroke-dasharray: 5.55,2.4; stroke-dashoffset: 0; stroke: #2ca02c; stroke-width: 1.5"/>
    </g>
    <g id="text_25">
     <!-- $\overline{\Sigma}(1670)^{-}$ -->
     <g transform="translate(631.062277 48.384375) scale(0.12 -0.12)">
      <use xlink:href="#DejaVuSans-3a3" transform="translate(0 0.84375)"/>
      <use xlink:href="#DejaVuSans-28" transform="translate(63.183594 0.34375)"/>
      <use xlink:href="#DejaVuSans-31" transform="translate(102.197266 0.34375)"/>
      <use xlink:href="#DejaVuSans-36" transform="translate(165.820312 0.34375)"/>
      <use xlink:href="#DejaVuSans-37" transform="translate(229.443359 0.34375)"/>
      <use xlink:href="#DejaVuSans-30" transform="translate(293.066406 0.34375)"/>
      <use xlink:href="#DejaVuSans-29" transform="translate(356.689453 0.34375)"/>
      <use xlink:href="#DejaVuSans-2212" transform="translate(396.660156 38.625) scale(0.7)"/>
      <path d="M 0 85.5 
L 0 91.75 
L 63.183594 91.75 
L 63.183594 85.5 
L 0 85.5 
z
"/>
     </g>
    </g>
    <g id="line2d_44">
     <path d="M 597.462277 63.624375 
L 609.462277 63.624375 
L 621.462277 63.624375 
" style="fill: none; stroke-dasharray: 5.55,2.4; stroke-dashoffset: 0; stroke: #d62728; stroke-width: 1.5"/>
    </g>
    <g id="text_26">
     <!-- $\overline{\Sigma}(1750)^{-}$ -->
     <g transform="translate(631.062277 67.824375) scale(0.12 -0.12)">
      <use xlink:href="#DejaVuSans-3a3" transform="translate(0 0.84375)"/>
      <use xlink:href="#DejaVuSans-28" transform="translate(63.183594 0.34375)"/>
      <use xlink:href="#DejaVuSans-31" transform="translate(102.197266 0.34375)"/>
      <use xlink:href="#DejaVuSans-37" transform="translate(165.820312 0.34375)"/>
      <use xlink:href="#DejaVuSans-35" transform="translate(229.443359 0.34375)"/>
      <use xlink:href="#DejaVuSans-30" transform="translate(293.066406 0.34375)"/>
      <use xlink:href="#DejaVuSans-29" transform="translate(356.689453 0.34375)"/>
      <use xlink:href="#DejaVuSans-2212" transform="translate(396.660156 38.625) scale(0.7)"/>
      <path d="M 0 85.5 
L 0 91.75 
L 63.183594 91.75 
L 63.183594 85.5 
L 0 85.5 
z
"/>
     </g>
    </g>
    <g id="line2d_45">
     <path d="M 597.462277 83.064375 
L 609.462277 83.064375 
L 621.462277 83.064375 
" style="fill: none; stroke-dasharray: 5.55,2.4; stroke-dashoffset: 0; stroke: #9467bd; stroke-width: 1.5"/>
    </g>
    <g id="text_27">
     <!-- $\overline{\Sigma}(1775)^{-}$ -->
     <g transform="translate(631.062277 87.264375) scale(0.12 -0.12)">
      <use xlink:href="#DejaVuSans-3a3" transform="translate(0 0.84375)"/>
      <use xlink:href="#DejaVuSans-28" transform="translate(63.183594 0.34375)"/>
      <use xlink:href="#DejaVuSans-31" transform="translate(102.197266 0.34375)"/>
      <use xlink:href="#DejaVuSans-37" transform="translate(165.820312 0.34375)"/>
      <use xlink:href="#DejaVuSans-37" transform="translate(227.693359 0.34375)"/>
      <use xlink:href="#DejaVuSans-35" transform="translate(291.316406 0.34375)"/>
      <use xlink:href="#DejaVuSans-29" transform="translate(354.939453 0.34375)"/>
      <use xlink:href="#DejaVuSans-2212" transform="translate(394.910156 38.625) scale(0.7)"/>
      <path d="M 0 85.5 
L 0 91.75 
L 63.183594 91.75 
L 63.183594 85.5 
L 0 85.5 
z
"/>
     </g>
    </g>
    <g id="line2d_46">
     <path d="M 597.462277 102.504375 
L 609.462277 102.504375 
L 621.462277 102.504375 
" style="fill: none; stroke-dasharray: 5.55,2.4; stroke-dashoffset: 0; stroke: #8c564b; stroke-width: 1.5"/>
    </g>
    <g id="text_28">
     <!-- $\overline{\Sigma}(1940)^{-}$ -->
     <g transform="translate(631.062277 106.704375) scale(0.12 -0.12)">
      <use xlink:href="#DejaVuSans-3a3" transform="translate(0 0.84375)"/>
      <use xlink:href="#DejaVuSans-28" transform="translate(63.183594 0.34375)"/>
      <use xlink:href="#DejaVuSans-31" transform="translate(102.197266 0.34375)"/>
      <use xlink:href="#DejaVuSans-39" transform="translate(165.820312 0.34375)"/>
      <use xlink:href="#DejaVuSans-34" transform="translate(229.443359 0.34375)"/>
      <use xlink:href="#DejaVuSans-30" transform="translate(293.066406 0.34375)"/>
      <use xlink:href="#DejaVuSans-29" transform="translate(356.689453 0.34375)"/>
      <use xlink:href="#DejaVuSans-2212" transform="translate(396.660156 38.625) scale(0.7)"/>
      <path d="M 0 85.5 
L 0 91.75 
L 63.183594 91.75 
L 63.183594 85.5 
L 0 85.5 
z
"/>
     </g>
    </g>
   </g>
  </g>
 </g>
 <defs>
  <clipPath id="pbb86460b54">
   <rect x="79.49" y="7.2" width="497.227723" height="332.64"/>
  </clipPath>
  <clipPath id="p018eba5af2">
   <rect x="586.662277" y="7.2" width="497.227723" height="332.64"/>
  </clipPath>
 </defs>
</svg>